<?xml version="1.0" encoding="UTF-8" standalone="no"?><!-- Generator: Gravit.io --><svg xmlns="http://www.w3.org/2000/svg" xmlns:xlink="http://www.w3.org/1999/xlink" style="isolation:isolate" viewBox="0 0 385 120" width="385pt" height="120pt"><defs><clipPath id="_clipPath_vijZTBYChaMl0UoFVzhjIHCWAbzzAi1c"><rect width="385" height="120"/></clipPath></defs><g clip-path="url(#_clipPath_vijZTBYChaMl0UoFVzhjIHCWAbzzAi1c)"><g><g><path d=" M 120.03 80 L 119.23 80.22 L 118.48 79.42 C 118.03 79.69 117.57 79.9 117.08 80.03 C 116.59 80.16 116.03 80.23 115.4 80.23 C 113.67 80.23 112.36 79.64 111.48 78.45 C 110.6 77.26 110.16 75.49 110.16 73.15 C 110.16 71.69 110.4 70.41 110.88 69.3 C 111.36 68.2 112.05 67.35 112.95 66.76 C 113.85 66.17 114.9 65.87 116.12 65.87 C 116.76 65.87 117.37 65.91 117.96 65.98 C 118.55 66.05 119.2 66.18 119.92 66.36 L 119.92 69.19 L 118.9 69.19 C 118.71 68.57 118.5 68.09 118.24 67.75 C 117.99 67.4 117.68 67.16 117.33 67.01 C 116.98 66.86 116.53 66.79 115.99 66.79 C 115.24 66.79 114.59 67.03 114.03 67.51 C 113.47 67.99 113.03 68.7 112.72 69.63 C 112.41 70.57 112.25 71.7 112.25 73.02 C 112.25 74.36 112.38 75.51 112.65 76.46 C 112.91 77.41 113.31 78.13 113.83 78.61 C 114.35 79.09 114.99 79.34 115.75 79.34 C 116.56 79.34 117.16 79.16 117.55 78.81 C 117.94 78.46 118.14 77.91 118.14 77.18 L 118.14 76.56 C 118.14 75.94 118.11 75.5 118.04 75.22 C 117.98 74.95 117.86 74.73 117.7 74.58 C 117.54 74.43 117.26 74.31 116.89 74.21 L 116.89 73.71 L 121.05 73.71 L 121.05 74.21 C 120.8 74.29 120.62 74.39 120.49 74.49 C 120.37 74.6 120.27 74.73 120.21 74.89 C 120.14 75.05 120.1 75.24 120.08 75.47 C 120.06 75.7 120.04 76.03 120.04 76.45 L 120.04 80 L 120.03 80 Z " fill="rgb(1,159,75)"/><path d=" M 131.02 78.3 C 130.58 78.76 130.18 79.12 129.81 79.38 C 129.44 79.64 129.04 79.84 128.6 79.99 C 128.16 80.14 127.68 80.21 127.15 80.21 C 125.74 80.21 124.67 79.79 123.95 78.94 C 123.23 78.09 122.87 76.84 122.87 75.19 C 122.87 74.17 123.05 73.27 123.42 72.49 C 123.79 71.71 124.31 71.11 124.99 70.68 C 125.67 70.26 126.45 70.04 127.33 70.04 C 128.02 70.04 128.61 70.15 129.1 70.37 C 129.59 70.59 129.98 70.89 130.27 71.27 C 130.56 71.65 130.79 72.13 130.95 72.71 C 131.11 73.29 131.2 74.05 131.22 74.98 L 124.74 74.98 L 124.74 75.17 C 124.74 75.98 124.83 76.66 125.01 77.21 C 125.19 77.76 125.49 78.19 125.9 78.51 C 126.31 78.82 126.86 78.98 127.52 78.98 C 128.08 78.98 128.59 78.88 129.04 78.67 C 129.49 78.46 129.94 78.12 130.38 77.65 L 131.02 78.3 Z  M 129.29 74.12 C 129.25 73.38 129.16 72.77 129.01 72.3 C 128.87 71.83 128.65 71.47 128.36 71.22 C 128.07 70.97 127.69 70.84 127.23 70.84 C 126.52 70.84 125.96 71.12 125.54 71.69 C 125.12 72.26 124.87 73.06 124.79 74.11 L 129.29 74.11 L 129.29 74.12 Z " fill="rgb(1,159,75)"/><path d=" M 135.85 71.92 L 135.99 71.95 C 136.37 71.49 136.72 71.13 137.04 70.87 C 137.36 70.61 137.71 70.4 138.08 70.26 C 138.45 70.11 138.88 70.04 139.35 70.04 C 139.75 70.04 140.11 70.06 140.43 70.1 L 140.43 72.47 L 139.27 72.47 C 139.11 72.1 138.93 71.83 138.75 71.66 C 138.57 71.49 138.31 71.41 137.99 71.41 C 137.74 71.41 137.5 71.48 137.25 71.63 C 137.01 71.77 136.77 71.98 136.55 72.26 C 136.32 72.53 136.17 72.79 136.08 73.03 C 135.99 73.27 135.95 73.55 135.95 73.88 L 135.95 77.48 C 135.95 78.1 135.99 78.53 136.06 78.77 C 136.14 79.01 136.26 79.18 136.44 79.29 C 136.61 79.4 136.88 79.48 137.23 79.55 L 137.23 80.05 L 133.09 80.05 L 133.09 79.55 C 133.35 79.47 133.54 79.4 133.65 79.33 C 133.76 79.27 133.86 79.18 133.94 79.07 C 134.02 78.96 134.08 78.79 134.13 78.57 C 134.17 78.34 134.19 77.99 134.19 77.51 L 134.19 73.03 C 134.19 72.59 134.18 72.24 134.17 71.97 C 134.16 71.7 134.11 71.49 134.03 71.33 C 133.95 71.17 133.82 71.05 133.65 70.97 C 133.48 70.89 133.24 70.82 132.94 70.77 L 132.94 70.23 L 135.35 70.13 L 135.98 70.13 L 135.85 71.92 Z " fill="rgb(1,159,75)"/><path d=" M 144.57 71.8 L 144.71 71.84 C 145.12 71.43 145.46 71.12 145.72 70.91 C 145.98 70.7 146.24 70.53 146.49 70.41 C 146.74 70.28 146.97 70.19 147.18 70.14 C 147.4 70.09 147.62 70.06 147.84 70.06 C 148.53 70.06 149.08 70.22 149.52 70.53 C 149.95 70.85 150.25 71.33 150.41 71.98 C 150.92 71.46 151.34 71.07 151.66 70.83 C 151.98 70.58 152.3 70.39 152.64 70.26 C 152.97 70.13 153.33 70.06 153.71 70.06 C 154.17 70.06 154.56 70.13 154.9 70.26 C 155.23 70.39 155.51 70.6 155.74 70.88 C 155.97 71.16 156.14 71.51 156.24 71.92 C 156.35 72.34 156.4 72.9 156.4 73.61 L 156.4 77.49 C 156.4 78.01 156.42 78.37 156.45 78.57 C 156.48 78.77 156.53 78.92 156.6 79.03 C 156.66 79.14 156.76 79.23 156.89 79.31 C 157.02 79.39 157.24 79.47 157.55 79.55 L 157.55 80.05 L 153.51 80.05 L 153.51 79.55 C 153.78 79.47 153.97 79.4 154.09 79.33 C 154.21 79.27 154.3 79.18 154.38 79.07 C 154.46 78.96 154.52 78.79 154.57 78.56 C 154.61 78.33 154.64 77.98 154.64 77.52 L 154.64 74.83 C 154.64 74.25 154.62 73.76 154.59 73.39 C 154.56 73.01 154.51 72.71 154.45 72.48 C 154.38 72.25 154.31 72.08 154.21 71.94 C 154.12 71.81 154.01 71.7 153.9 71.6 C 153.78 71.5 153.65 71.43 153.49 71.37 C 153.33 71.32 153.12 71.29 152.86 71.29 C 152.59 71.29 152.33 71.35 152.09 71.45 C 151.85 71.56 151.6 71.75 151.32 72.01 C 151.04 72.27 150.84 72.53 150.72 72.8 C 150.6 73.06 150.54 73.37 150.54 73.73 L 150.54 77.48 C 150.54 78 150.56 78.36 150.59 78.56 C 150.62 78.76 150.67 78.91 150.74 79.02 C 150.81 79.13 150.9 79.22 151.03 79.3 C 151.16 79.38 151.38 79.46 151.69 79.54 L 151.69 80.04 L 147.65 80.04 L 147.65 79.54 C 147.92 79.46 148.11 79.39 148.23 79.32 C 148.35 79.26 148.44 79.17 148.52 79.06 C 148.6 78.95 148.66 78.78 148.7 78.55 C 148.74 78.32 148.77 77.97 148.77 77.51 L 148.77 74.82 C 148.77 74.21 148.75 73.71 148.72 73.33 C 148.69 72.95 148.63 72.64 148.56 72.4 C 148.49 72.17 148.4 71.98 148.28 71.83 C 148.17 71.69 148.05 71.58 147.94 71.5 C 147.82 71.42 147.69 71.37 147.53 71.33 C 147.37 71.29 147.19 71.27 146.99 71.27 C 146.71 71.27 146.45 71.33 146.2 71.46 C 145.95 71.59 145.7 71.77 145.44 72.01 C 145.18 72.25 144.99 72.5 144.86 72.76 C 144.73 73.02 144.66 73.3 144.66 73.6 L 144.66 77.46 C 144.66 77.85 144.67 78.15 144.69 78.35 C 144.71 78.56 144.74 78.72 144.79 78.83 C 144.83 78.95 144.89 79.04 144.96 79.11 C 145.03 79.18 145.13 79.25 145.25 79.32 C 145.38 79.39 145.57 79.45 145.82 79.52 L 145.82 80.02 L 141.79 80.02 L 141.79 79.52 C 142.05 79.44 142.24 79.37 142.35 79.3 C 142.46 79.24 142.56 79.15 142.64 79.04 C 142.72 78.93 142.78 78.76 142.83 78.54 C 142.87 78.31 142.89 77.96 142.89 77.48 L 142.89 73 C 142.89 72.56 142.88 72.21 142.87 71.94 C 142.86 71.67 142.81 71.46 142.73 71.3 C 142.65 71.14 142.52 71.02 142.35 70.94 C 142.18 70.86 141.94 70.79 141.63 70.74 L 141.63 70.2 L 144.04 70.11 L 144.67 70.11 L 144.57 71.8 Z " fill="rgb(1,159,75)"/><path d=" M 165.26 78.58 L 165.11 78.54 C 164.51 79.15 163.95 79.58 163.43 79.84 C 162.91 80.09 162.35 80.22 161.76 80.22 C 161.24 80.22 160.78 80.12 160.38 79.92 C 159.98 79.72 159.68 79.43 159.46 79.07 C 159.25 78.7 159.14 78.28 159.14 77.8 C 159.14 76.8 159.64 76.03 160.63 75.48 C 161.62 74.93 163.11 74.62 165.09 74.53 L 165.09 73.86 C 165.09 73.15 165.02 72.58 164.88 72.17 C 164.74 71.76 164.53 71.46 164.23 71.26 C 163.94 71.07 163.54 70.97 163.05 70.97 C 162.52 70.97 162.09 71.11 161.76 71.39 C 161.43 71.67 161.19 72.09 161.02 72.66 L 159.67 72.66 L 159.67 71.32 C 160.33 70.98 160.88 70.73 161.32 70.56 C 161.76 70.4 162.2 70.27 162.64 70.18 C 163.08 70.09 163.52 70.04 163.98 70.04 C 164.66 70.04 165.2 70.15 165.62 70.36 C 166.03 70.58 166.34 70.91 166.55 71.35 C 166.76 71.8 166.86 72.47 166.86 73.37 L 166.86 76.95 C 166.86 77.46 166.86 77.82 166.87 78.03 C 166.88 78.24 166.9 78.43 166.93 78.61 C 166.96 78.79 167.02 78.93 167.08 79.04 C 167.15 79.15 167.25 79.24 167.38 79.31 C 167.51 79.39 167.73 79.46 168.03 79.55 L 168.03 80.05 L 165.21 80.05 L 165.26 78.58 Z  M 165.08 75.36 C 163.69 75.37 162.65 75.56 161.95 75.92 C 161.26 76.28 160.91 76.82 160.91 77.53 C 160.91 77.92 160.99 78.23 161.15 78.46 C 161.31 78.69 161.51 78.84 161.75 78.93 C 161.99 79.02 162.27 79.06 162.6 79.06 C 163.07 79.06 163.49 78.95 163.87 78.72 C 164.25 78.49 164.55 78.2 164.76 77.86 C 164.97 77.51 165.08 77.16 165.08 76.82 L 165.08 75.36 Z " fill="rgb(1,159,75)"/><path d=" M 179.61 80.05 L 175.56 80.05 L 175.56 79.55 C 175.83 79.47 176.02 79.4 176.14 79.33 C 176.26 79.27 176.35 79.18 176.43 79.07 C 176.51 78.96 176.57 78.79 176.61 78.56 C 176.65 78.33 176.68 77.98 176.68 77.52 L 176.68 74.83 C 176.68 74.35 176.67 73.91 176.64 73.52 C 176.61 73.13 176.57 72.81 176.5 72.56 C 176.43 72.31 176.36 72.11 176.26 71.97 C 176.17 71.83 176.06 71.71 175.93 71.61 C 175.8 71.51 175.66 71.43 175.49 71.37 C 175.33 71.31 175.11 71.28 174.84 71.28 C 174.57 71.28 174.32 71.33 174.08 71.44 C 173.84 71.55 173.58 71.73 173.29 71.99 C 173 72.25 172.79 72.51 172.66 72.76 C 172.53 73.01 172.46 73.31 172.46 73.63 L 172.46 77.47 C 172.46 78.06 172.49 78.47 172.54 78.7 C 172.59 78.93 172.7 79.1 172.85 79.22 C 173 79.34 173.26 79.44 173.61 79.53 L 173.61 80.03 L 169.58 80.03 L 169.58 79.53 C 169.85 79.45 170.04 79.38 170.15 79.31 C 170.26 79.25 170.36 79.16 170.44 79.05 C 170.52 78.94 170.58 78.77 170.62 78.55 C 170.66 78.32 170.69 77.97 170.69 77.49 L 170.69 73.01 C 170.69 72.57 170.68 72.22 170.67 71.95 C 170.66 71.68 170.61 71.47 170.53 71.31 C 170.45 71.15 170.32 71.03 170.15 70.95 C 169.98 70.87 169.74 70.8 169.43 70.75 L 169.43 70.21 L 171.84 70.12 L 172.47 70.12 L 172.36 71.8 L 172.5 71.84 C 173.01 71.33 173.42 70.96 173.73 70.74 C 174.04 70.52 174.36 70.35 174.68 70.23 C 175 70.11 175.34 70.05 175.69 70.05 C 176.06 70.05 176.39 70.09 176.68 70.18 C 176.97 70.27 177.23 70.4 177.45 70.58 C 177.67 70.76 177.86 70.98 178 71.24 C 178.14 71.5 178.25 71.82 178.32 72.19 C 178.39 72.56 178.43 73.03 178.43 73.6 L 178.43 77.48 C 178.43 77.95 178.44 78.3 178.47 78.51 C 178.5 78.72 178.55 78.89 178.61 79 C 178.68 79.12 178.78 79.21 178.91 79.29 C 179.04 79.37 179.27 79.45 179.59 79.54 L 179.59 80.05 L 179.61 80.05 Z " fill="rgb(1,159,75)"/><path d=" M 194.49 74.48 C 194.74 74.89 194.94 75.25 195.11 75.56 C 195.28 75.87 195.45 76.21 195.63 76.6 L 195.76 76.6 C 195.73 76.18 195.69 75.35 195.67 74.11 C 195.64 72.87 195.63 71.74 195.63 70.74 L 195.63 68.58 C 195.63 68.11 195.62 67.76 195.59 67.54 C 195.56 67.32 195.51 67.15 195.44 67.04 C 195.37 66.92 195.27 66.83 195.14 66.76 C 195.01 66.69 194.79 66.61 194.48 66.52 L 194.48 66.02 L 198.18 66.02 L 198.18 66.52 C 197.87 66.6 197.65 66.68 197.53 66.75 C 197.4 66.82 197.3 66.91 197.22 67.02 C 197.14 67.13 197.08 67.29 197.04 67.51 C 197 67.73 196.98 68.09 196.98 68.59 L 196.98 80.12 L 195.69 80.12 L 189.96 70.52 C 189.6 69.92 189.35 69.49 189.2 69.21 C 189.05 68.94 188.91 68.67 188.78 68.4 L 188.61 68.4 C 188.66 68.93 188.69 69.88 188.71 71.26 C 188.73 72.64 188.74 74.02 188.74 75.39 L 188.74 77.49 C 188.74 77.95 188.76 78.29 188.79 78.5 C 188.82 78.71 188.87 78.88 188.94 79 C 189.01 79.12 189.12 79.23 189.26 79.31 C 189.4 79.39 189.63 79.48 189.94 79.56 L 189.94 80.06 L 186.19 80.06 L 186.19 79.56 C 186.61 79.45 186.9 79.33 187.04 79.19 C 187.18 79.06 187.28 78.87 187.32 78.62 C 187.36 78.37 187.39 78 187.39 77.49 L 187.39 68.59 C 187.39 68.12 187.37 67.77 187.34 67.56 C 187.31 67.34 187.25 67.18 187.17 67.06 C 187.09 66.94 186.99 66.84 186.86 66.77 C 186.73 66.7 186.51 66.62 186.19 66.53 L 186.19 66.03 L 189.41 66.03 L 194.49 74.48 Z " fill="rgb(1,159,75)"/><path d=" M 208.54 78.3 C 208.1 78.76 207.7 79.12 207.33 79.38 C 206.96 79.64 206.56 79.84 206.12 79.99 C 205.68 80.14 205.2 80.21 204.67 80.21 C 203.26 80.21 202.19 79.79 201.47 78.94 C 200.75 78.09 200.39 76.84 200.39 75.19 C 200.39 74.17 200.57 73.27 200.94 72.49 C 201.31 71.71 201.83 71.11 202.51 70.68 C 203.19 70.26 203.97 70.04 204.85 70.04 C 205.54 70.04 206.13 70.15 206.62 70.37 C 207.11 70.59 207.5 70.89 207.79 71.27 C 208.08 71.65 208.31 72.13 208.47 72.71 C 208.63 73.29 208.72 74.05 208.74 74.98 L 202.26 74.98 L 202.26 75.17 C 202.26 75.98 202.35 76.66 202.53 77.21 C 202.71 77.76 203.01 78.19 203.42 78.51 C 203.84 78.82 204.38 78.98 205.04 78.98 C 205.6 78.98 206.11 78.88 206.56 78.67 C 207.01 78.46 207.46 78.12 207.9 77.65 L 208.54 78.3 Z  M 206.81 74.12 C 206.77 73.38 206.68 72.77 206.53 72.3 C 206.39 71.83 206.17 71.47 205.88 71.22 C 205.59 70.97 205.22 70.84 204.75 70.84 C 204.04 70.84 203.48 71.12 203.06 71.69 C 202.64 72.26 202.39 73.06 202.31 74.11 L 206.81 74.11 L 206.81 74.12 Z " fill="rgb(1,159,75)"/><path d=" M 209.98 70.73 C 210.32 70.68 210.6 70.58 210.81 70.44 C 211.02 70.3 211.19 70.13 211.31 69.91 C 211.43 69.69 211.52 69.42 211.59 69.1 C 211.66 68.77 211.73 68.3 211.81 67.68 L 213.27 67.68 L 213.27 70.22 L 216.59 70.22 L 216.59 71.26 L 213.27 71.26 L 213.27 75.84 C 213.27 76.51 213.3 77.04 213.35 77.43 C 213.4 77.82 213.51 78.13 213.66 78.36 C 213.81 78.58 213.98 78.74 214.17 78.84 C 214.36 78.93 214.61 78.98 214.91 78.98 C 215.18 78.98 215.44 78.92 215.68 78.81 C 215.92 78.7 216.16 78.53 216.39 78.32 L 216.85 78.88 C 216.36 79.35 215.9 79.7 215.47 79.91 C 215.04 80.12 214.58 80.23 214.12 80.23 C 213.23 80.23 212.58 79.97 212.15 79.44 C 211.72 78.92 211.5 78.09 211.5 76.98 L 211.5 71.27 L 209.98 71.27 L 209.98 70.73 L 209.98 70.73 Z " fill="rgb(1,159,75)"/><path d=" M 224.93 72.37 L 222.24 80.1 L 220.81 80.1 L 218.34 72.47 C 218.18 71.98 218.05 71.63 217.94 71.43 C 217.83 71.23 217.72 71.08 217.6 70.98 C 217.48 70.88 217.29 70.8 217.02 70.73 L 217.02 70.23 L 221.08 70.23 L 221.08 70.73 C 220.68 70.81 220.41 70.92 220.27 71.05 C 220.13 71.18 220.06 71.38 220.06 71.65 C 220.06 71.84 220.08 72.03 220.12 72.23 C 220.16 72.43 220.22 72.67 220.31 72.94 L 221.92 78.18 L 224.56 70.22 L 226.01 70.22 L 228.25 78.18 L 230.06 73.15 C 230.16 72.89 230.24 72.64 230.3 72.4 C 230.36 72.16 230.39 71.94 230.39 71.74 C 230.39 71.45 230.31 71.23 230.16 71.07 C 230.01 70.91 229.74 70.8 229.37 70.72 L 229.37 70.22 L 232.96 70.22 L 232.96 70.72 C 232.77 70.77 232.62 70.82 232.53 70.87 C 232.43 70.92 232.34 71 232.25 71.1 C 232.16 71.2 232.06 71.35 231.94 71.56 C 231.83 71.77 231.68 72.09 231.51 72.53 L 228.54 80.1 L 227.15 80.1 L 224.93 72.37 Z " fill="rgb(1,159,75)"/><path d=" M 238.24 80.21 C 236.81 80.21 235.73 79.79 234.97 78.95 C 234.22 78.11 233.84 76.87 233.84 75.22 C 233.84 74.09 234.04 73.13 234.43 72.35 C 234.82 71.57 235.36 70.99 236.05 70.61 C 236.74 70.23 237.52 70.04 238.4 70.04 C 239.87 70.04 240.98 70.47 241.73 71.32 C 242.48 72.17 242.86 73.4 242.86 75 C 242.86 76.14 242.67 77.1 242.29 77.88 C 241.91 78.66 241.38 79.25 240.69 79.63 C 240.01 80.02 239.19 80.21 238.24 80.21 Z  M 235.79 75.01 C 235.79 76.42 236.01 77.51 236.46 78.26 C 236.91 79.02 237.55 79.4 238.39 79.4 C 238.85 79.4 239.24 79.29 239.56 79.06 C 239.88 78.84 240.14 78.54 240.35 78.16 C 240.55 77.78 240.7 77.35 240.79 76.85 C 240.88 76.35 240.92 75.83 240.92 75.29 C 240.92 74.28 240.81 73.45 240.59 72.78 C 240.37 72.11 240.06 71.63 239.68 71.31 C 239.3 71 238.86 70.84 238.36 70.84 C 237.53 70.84 236.89 71.2 236.45 71.92 C 236.02 72.65 235.79 73.68 235.79 75.01 Z " fill="rgb(1,159,75)"/><path d=" M 247.72 71.92 L 247.86 71.95 C 248.24 71.49 248.59 71.13 248.91 70.87 C 249.23 70.61 249.58 70.4 249.95 70.26 C 250.32 70.11 250.75 70.04 251.22 70.04 C 251.62 70.04 251.98 70.06 252.3 70.1 L 252.3 72.47 L 251.14 72.47 C 250.98 72.1 250.8 71.83 250.62 71.66 C 250.43 71.49 250.18 71.41 249.86 71.41 C 249.61 71.41 249.37 71.48 249.12 71.63 C 248.88 71.77 248.64 71.98 248.42 72.26 C 248.19 72.53 248.04 72.79 247.95 73.03 C 247.86 73.27 247.82 73.55 247.82 73.88 L 247.82 77.48 C 247.82 78.1 247.86 78.53 247.93 78.77 C 248.01 79.01 248.13 79.18 248.31 79.29 C 248.49 79.4 248.75 79.48 249.1 79.55 L 249.1 80.05 L 244.96 80.05 L 244.96 79.55 C 245.22 79.47 245.41 79.4 245.52 79.33 C 245.63 79.27 245.73 79.18 245.81 79.07 C 245.89 78.96 245.95 78.79 245.99 78.57 C 246.03 78.34 246.05 77.99 246.05 77.51 L 246.05 73.03 C 246.05 72.59 246.04 72.24 246.03 71.97 C 246.02 71.7 245.97 71.49 245.89 71.33 C 245.81 71.17 245.68 71.05 245.51 70.97 C 245.34 70.89 245.1 70.82 244.8 70.77 L 244.8 70.23 L 247.21 70.13 L 247.84 70.13 L 247.72 71.92 Z " fill="rgb(1,159,75)"/><path d=" M 256.3 74.32 L 256.63 74.32 C 256.86 74.32 257.04 74.3 257.19 74.25 C 257.36 74.19 257.55 74.08 257.76 73.94 C 257.97 73.79 258.26 73.54 258.63 73.19 C 258.95 72.9 259.18 72.65 259.34 72.44 C 259.5 72.23 259.61 72.05 259.67 71.87 C 259.72 71.73 259.75 71.58 259.75 71.44 C 259.75 71.23 259.69 71.07 259.56 70.96 C 259.43 70.84 259.23 70.76 258.94 70.72 L 258.94 70.22 L 263.37 70.22 L 263.37 70.72 C 263.06 70.78 262.72 70.92 262.36 71.14 C 262 71.36 261.64 71.65 261.26 72 L 258.89 74.24 L 261.85 78.11 C 262.19 78.56 262.5 78.9 262.78 79.11 C 263.06 79.33 263.36 79.47 263.69 79.54 L 263.69 80.04 L 259.74 80.04 L 259.74 79.54 C 259.92 79.52 260.05 79.48 260.14 79.42 C 260.23 79.36 260.27 79.26 260.27 79.13 C 260.27 79.03 260.25 78.93 260.21 78.83 C 260.17 78.73 260.09 78.6 259.98 78.42 C 259.86 78.25 259.65 77.95 259.34 77.53 L 258.12 75.88 C 257.89 75.57 257.72 75.37 257.62 75.27 C 257.52 75.17 257.42 75.1 257.31 75.06 C 257.2 75.02 257.05 75 256.87 75 L 256.29 75 L 256.29 77.47 C 256.29 78.06 256.32 78.47 256.37 78.7 C 256.42 78.93 256.53 79.1 256.68 79.22 C 256.83 79.34 257.09 79.44 257.44 79.53 L 257.44 80.03 L 253.36 80.03 L 253.36 79.53 C 253.7 79.44 253.94 79.35 254.07 79.25 C 254.2 79.15 254.3 79.04 254.36 78.9 C 254.42 78.77 254.46 78.59 254.48 78.36 C 254.5 78.13 254.52 77.83 254.52 77.46 L 254.52 68.85 C 254.52 68.19 254.52 67.73 254.5 67.47 C 254.49 67.21 254.46 66.99 254.42 66.81 C 254.38 66.63 254.31 66.49 254.23 66.38 C 254.15 66.28 254.04 66.19 253.91 66.13 C 253.78 66.07 253.53 66.01 253.19 65.95 L 253.19 65.41 L 255.67 65.31 L 256.29 65.31 L 256.29 74.32 L 256.3 74.32 Z " fill="rgb(1,159,75)"/><path d=" M 274.52 71.25 L 272.06 71.25 L 272.06 77.47 C 272.06 77.93 272.08 78.28 272.13 78.51 C 272.17 78.74 272.24 78.92 272.33 79.04 C 272.42 79.16 272.53 79.26 272.67 79.33 C 272.81 79.4 273.03 79.47 273.34 79.54 L 273.34 80.04 L 269.13 80.04 L 269.13 79.54 C 269.43 79.46 269.65 79.38 269.78 79.3 C 269.91 79.22 270.01 79.13 270.08 79.01 C 270.15 78.89 270.2 78.73 270.24 78.51 C 270.27 78.29 270.29 77.94 270.29 77.47 L 270.29 71.25 L 269.05 71.25 L 269.05 70.73 C 269.31 70.69 269.48 70.66 269.57 70.63 C 269.66 70.61 269.74 70.57 269.82 70.52 C 269.9 70.47 269.97 70.4 270.03 70.31 C 270.09 70.22 270.14 70.09 270.18 69.91 C 270.23 69.74 270.26 69.49 270.29 69.18 C 270.35 68.43 270.49 67.83 270.7 67.36 C 270.91 66.89 271.21 66.5 271.62 66.17 C 272.02 65.84 272.45 65.61 272.91 65.48 C 273.37 65.35 273.9 65.28 274.52 65.28 C 275.06 65.28 275.52 65.32 275.9 65.39 L 275.9 67.25 L 274.88 67.25 C 274.75 66.85 274.6 66.56 274.42 66.39 C 274.25 66.22 274 66.14 273.68 66.14 C 273.45 66.14 273.26 66.17 273.11 66.23 C 272.96 66.29 272.81 66.39 272.68 66.52 C 272.55 66.65 272.44 66.83 272.35 67.04 C 272.26 67.26 272.19 67.53 272.14 67.86 C 272.1 68.19 272.07 68.61 272.07 69.13 L 272.07 70.21 L 274.53 70.21 L 274.53 71.25 L 274.52 71.25 Z " fill="rgb(1,159,75)"/><path d=" M 279.83 80.21 C 278.4 80.21 277.32 79.79 276.56 78.95 C 275.81 78.11 275.43 76.87 275.43 75.22 C 275.43 74.09 275.63 73.13 276.02 72.35 C 276.41 71.57 276.95 70.99 277.64 70.61 C 278.33 70.23 279.11 70.04 279.99 70.04 C 281.46 70.04 282.57 70.47 283.32 71.32 C 284.07 72.17 284.45 73.4 284.45 75 C 284.45 76.14 284.26 77.1 283.89 77.88 C 283.51 78.66 282.98 79.25 282.29 79.63 C 281.6 80.02 280.78 80.21 279.83 80.21 Z  M 277.38 75.01 C 277.38 76.42 277.6 77.51 278.05 78.26 C 278.5 79.02 279.14 79.4 279.98 79.4 C 280.44 79.4 280.83 79.29 281.15 79.06 C 281.47 78.84 281.73 78.54 281.94 78.16 C 282.14 77.78 282.29 77.35 282.38 76.85 C 282.47 76.35 282.51 75.83 282.51 75.29 C 282.51 74.28 282.4 73.45 282.18 72.78 C 281.96 72.11 281.65 71.63 281.27 71.31 C 280.89 71 280.45 70.84 279.95 70.84 C 279.12 70.84 278.48 71.2 278.04 71.92 C 277.6 72.65 277.38 73.68 277.38 75.01 Z " fill="rgb(1,159,75)"/><path d=" M 289.31 71.92 L 289.45 71.95 C 289.83 71.49 290.18 71.13 290.5 70.87 C 290.82 70.61 291.17 70.4 291.54 70.26 C 291.91 70.11 292.34 70.04 292.81 70.04 C 293.21 70.04 293.57 70.06 293.89 70.1 L 293.89 72.47 L 292.73 72.47 C 292.57 72.1 292.39 71.83 292.21 71.66 C 292.03 71.49 291.77 71.41 291.45 71.41 C 291.2 71.41 290.96 71.48 290.71 71.63 C 290.47 71.77 290.23 71.98 290.01 72.26 C 289.78 72.53 289.63 72.79 289.54 73.03 C 289.45 73.27 289.41 73.55 289.41 73.88 L 289.41 77.48 C 289.41 78.1 289.45 78.53 289.52 78.77 C 289.6 79.01 289.72 79.18 289.9 79.29 C 290.08 79.4 290.34 79.48 290.69 79.55 L 290.69 80.05 L 286.55 80.05 L 286.55 79.55 C 286.81 79.47 287 79.4 287.11 79.33 C 287.22 79.27 287.32 79.18 287.4 79.07 C 287.48 78.96 287.54 78.79 287.59 78.57 C 287.63 78.34 287.65 77.99 287.65 77.51 L 287.65 73.03 C 287.65 72.59 287.64 72.24 287.63 71.97 C 287.62 71.7 287.57 71.49 287.49 71.33 C 287.41 71.17 287.28 71.05 287.11 70.97 C 286.94 70.89 286.7 70.82 286.4 70.77 L 286.4 70.23 L 288.81 70.13 L 289.44 70.13 L 289.31 71.92 Z " fill="rgb(1,159,75)"/><path d=" M 110.19 99.6 L 110.19 99.1 C 110.61 98.99 110.9 98.87 111.04 98.74 C 111.18 98.61 111.28 98.42 111.32 98.17 C 111.36 97.92 111.39 97.55 111.39 97.04 L 111.39 88.14 C 111.39 87.67 111.37 87.32 111.34 87.11 C 111.31 86.89 111.25 86.73 111.17 86.61 C 111.09 86.49 110.99 86.39 110.86 86.32 C 110.73 86.25 110.51 86.17 110.19 86.08 L 110.19 85.58 L 115.81 85.58 C 116.9 85.58 117.78 85.7 118.44 85.93 C 119.1 86.16 119.59 86.51 119.92 86.96 C 120.24 87.42 120.4 88 120.4 88.72 C 120.4 89.32 120.28 89.84 120.05 90.27 C 119.82 90.71 119.52 91.07 119.15 91.36 C 118.78 91.65 118.3 91.92 117.72 92.16 L 117.72 92.25 C 118.65 92.53 119.36 92.96 119.84 93.55 C 120.32 94.14 120.56 94.83 120.56 95.64 C 120.56 96.57 120.35 97.33 119.94 97.92 C 119.52 98.51 118.94 98.94 118.2 99.2 C 117.45 99.46 116.55 99.6 115.48 99.6 L 110.19 99.6 L 110.19 99.6 Z  M 115.11 91.86 C 116.15 91.86 116.95 91.61 117.5 91.1 C 118.05 90.6 118.33 89.86 118.33 88.9 C 118.33 88.43 118.25 88.03 118.1 87.72 C 117.95 87.41 117.73 87.16 117.46 86.97 C 117.19 86.78 116.87 86.65 116.5 86.57 C 116.13 86.49 115.73 86.45 115.3 86.45 C 115.04 86.45 114.7 86.46 114.27 86.47 C 113.84 86.48 113.53 86.5 113.31 86.51 L 113.31 91.84 L 115.11 91.84 L 115.11 91.86 Z  M 113.31 98.63 C 113.81 98.68 114.37 98.7 114.99 98.7 C 115.89 98.7 116.59 98.59 117.08 98.36 C 117.58 98.13 117.94 97.8 118.16 97.36 C 118.38 96.92 118.49 96.37 118.49 95.7 C 118.49 95.03 118.37 94.49 118.12 94.06 C 117.88 93.63 117.5 93.31 116.99 93.09 C 116.48 92.88 115.78 92.77 114.89 92.77 L 113.3 92.77 L 113.3 98.63 L 113.31 98.63 Z " fill="rgb(1,159,75)"/><path d=" M 122.81 99.1 C 123.08 99.02 123.27 98.95 123.38 98.88 C 123.49 98.82 123.59 98.73 123.67 98.62 C 123.75 98.51 123.81 98.34 123.86 98.12 C 123.9 97.89 123.93 97.54 123.93 97.06 L 123.93 92.58 C 123.93 92.14 123.92 91.79 123.91 91.52 C 123.9 91.25 123.85 91.04 123.77 90.88 C 123.69 90.72 123.56 90.6 123.39 90.52 C 123.22 90.44 122.98 90.37 122.68 90.32 L 122.68 89.77 L 125.08 89.68 L 125.71 89.68 L 125.71 97.03 C 125.71 97.62 125.74 98.03 125.79 98.26 C 125.85 98.49 125.95 98.66 126.1 98.79 C 126.25 98.91 126.51 99.01 126.86 99.1 L 126.86 99.6 L 122.83 99.6 L 122.83 99.1 L 122.81 99.1 Z  M 125.76 85.74 L 125.76 87.74 L 123.87 87.74 L 123.87 85.74 L 125.76 85.74 Z " fill="rgb(1,159,75)"/><path d=" M 133.14 99.77 C 131.71 99.77 130.63 99.35 129.87 98.51 C 129.12 97.67 128.74 96.43 128.74 94.78 C 128.74 93.65 128.94 92.69 129.33 91.91 C 129.72 91.13 130.26 90.55 130.95 90.17 C 131.64 89.79 132.42 89.6 133.29 89.6 C 134.76 89.6 135.87 90.03 136.62 90.88 C 137.37 91.73 137.75 92.96 137.75 94.56 C 137.75 95.7 137.56 96.66 137.18 97.44 C 136.8 98.22 136.27 98.81 135.58 99.19 C 134.91 99.58 134.09 99.77 133.14 99.77 Z  M 130.69 94.57 C 130.69 95.98 130.91 97.07 131.36 97.83 C 131.81 98.59 132.45 98.97 133.29 98.97 C 133.75 98.97 134.14 98.86 134.46 98.64 C 134.78 98.42 135.04 98.12 135.25 97.74 C 135.45 97.36 135.6 96.93 135.69 96.43 C 135.78 95.93 135.82 95.41 135.82 94.87 C 135.82 93.86 135.71 93.03 135.49 92.36 C 135.27 91.69 134.96 91.21 134.58 90.89 C 134.2 90.58 133.76 90.42 133.26 90.42 C 132.43 90.42 131.79 90.78 131.35 91.5 C 130.91 92.21 130.69 93.24 130.69 94.57 Z " fill="rgb(1,159,75)"/><path d=" M 139.85 99.1 C 140.12 99.02 140.31 98.95 140.42 98.88 C 140.53 98.82 140.63 98.73 140.71 98.62 C 140.79 98.51 140.85 98.34 140.9 98.12 C 140.94 97.89 140.97 97.54 140.97 97.06 L 140.97 92.58 C 140.97 92.14 140.96 91.79 140.95 91.52 C 140.94 91.25 140.89 91.04 140.81 90.88 C 140.73 90.72 140.6 90.6 140.43 90.52 C 140.26 90.44 140.02 90.37 139.72 90.32 L 139.72 89.77 L 142.12 89.68 L 142.75 89.68 L 142.75 97.03 C 142.75 97.62 142.78 98.03 142.83 98.26 C 142.88 98.49 142.99 98.66 143.14 98.79 C 143.29 98.91 143.55 99.01 143.9 99.1 L 143.9 99.6 L 139.87 99.6 L 139.87 99.1 L 139.85 99.1 Z  M 142.79 85.74 L 142.79 87.74 L 140.9 87.74 L 140.9 85.74 L 142.79 85.74 Z " fill="rgb(1,159,75)"/><path d=" M 155.71 99.6 L 151.66 99.6 L 151.66 99.1 C 151.93 99.02 152.12 98.95 152.24 98.88 C 152.36 98.82 152.45 98.73 152.53 98.62 C 152.61 98.51 152.67 98.34 152.71 98.11 C 152.75 97.88 152.78 97.53 152.78 97.07 L 152.78 94.38 C 152.78 93.9 152.77 93.46 152.74 93.07 C 152.71 92.68 152.67 92.36 152.6 92.11 C 152.53 91.86 152.46 91.67 152.36 91.52 C 152.27 91.38 152.16 91.26 152.03 91.16 C 151.9 91.06 151.76 90.98 151.59 90.92 C 151.43 90.86 151.21 90.83 150.94 90.83 C 150.67 90.83 150.42 90.88 150.18 90.99 C 149.94 91.1 149.68 91.28 149.39 91.54 C 149.1 91.8 148.89 92.06 148.76 92.31 C 148.63 92.56 148.56 92.85 148.56 93.18 L 148.56 97.02 C 148.56 97.61 148.59 98.02 148.64 98.25 C 148.7 98.48 148.8 98.65 148.95 98.78 C 149.1 98.9 149.36 99 149.71 99.09 L 149.71 99.59 L 145.68 99.59 L 145.68 99.09 C 145.95 99.01 146.14 98.94 146.25 98.87 C 146.36 98.81 146.46 98.72 146.54 98.61 C 146.62 98.5 146.68 98.33 146.73 98.11 C 146.77 97.88 146.8 97.53 146.8 97.05 L 146.8 92.57 C 146.8 92.13 146.79 91.78 146.78 91.51 C 146.77 91.24 146.72 91.03 146.64 90.87 C 146.56 90.71 146.43 90.59 146.26 90.51 C 146.09 90.43 145.85 90.36 145.55 90.31 L 145.55 89.76 L 147.96 89.67 L 148.59 89.67 L 148.48 91.35 L 148.62 91.39 C 149.13 90.88 149.54 90.51 149.85 90.29 C 150.16 90.07 150.48 89.9 150.8 89.78 C 151.12 89.66 151.46 89.6 151.81 89.6 C 152.18 89.6 152.51 89.64 152.8 89.73 C 153.09 89.82 153.35 89.95 153.57 90.13 C 153.79 90.31 153.98 90.53 154.12 90.79 C 154.26 91.05 154.37 91.37 154.44 91.74 C 154.51 92.11 154.55 92.58 154.55 93.15 L 154.55 97.03 C 154.55 97.5 154.56 97.85 154.59 98.06 C 154.62 98.27 154.66 98.44 154.73 98.55 C 154.8 98.67 154.9 98.76 155.03 98.84 C 155.16 98.92 155.39 99 155.71 99.09 L 155.71 99.6 L 155.71 99.6 Z " fill="rgb(1,159,75)"/><path d=" M 162.74 90.81 L 160.28 90.81 L 160.28 97.03 C 160.28 97.49 160.3 97.84 160.35 98.07 C 160.39 98.3 160.46 98.48 160.55 98.6 C 160.64 98.72 160.75 98.82 160.89 98.89 C 161.03 98.96 161.26 99.03 161.56 99.1 L 161.56 99.6 L 157.35 99.6 L 157.35 99.1 C 157.65 99.02 157.87 98.94 158 98.86 C 158.13 98.78 158.23 98.69 158.3 98.57 C 158.37 98.45 158.42 98.29 158.46 98.07 C 158.49 97.85 158.51 97.5 158.51 97.03 L 158.51 90.81 L 157.27 90.81 L 157.27 90.29 C 157.53 90.25 157.7 90.22 157.79 90.19 C 157.88 90.17 157.96 90.13 158.04 90.08 C 158.12 90.03 158.19 89.96 158.25 89.87 C 158.31 89.78 158.36 89.65 158.4 89.47 C 158.44 89.3 158.48 89.05 158.51 88.73 C 158.57 87.98 158.71 87.38 158.92 86.91 C 159.13 86.44 159.43 86.05 159.84 85.72 C 160.24 85.39 160.67 85.16 161.13 85.03 C 161.59 84.9 162.12 84.83 162.74 84.83 C 163.28 84.83 163.74 84.87 164.12 84.94 L 164.12 86.8 L 163.1 86.8 C 162.97 86.4 162.82 86.11 162.64 85.94 C 162.47 85.77 162.22 85.69 161.9 85.69 C 161.67 85.69 161.48 85.72 161.33 85.78 C 161.18 85.84 161.03 85.94 160.9 86.07 C 160.77 86.2 160.66 86.38 160.57 86.59 C 160.48 86.81 160.41 87.08 160.36 87.41 C 160.32 87.74 160.29 88.16 160.29 88.68 L 160.29 89.76 L 162.75 89.76 L 162.75 90.81 L 162.74 90.81 Z " fill="rgb(1,159,75)"/><path d=" M 168.04 99.77 C 166.61 99.77 165.53 99.35 164.78 98.51 C 164.03 97.67 163.65 96.43 163.65 94.78 C 163.65 93.65 163.85 92.69 164.24 91.91 C 164.64 91.13 165.18 90.55 165.86 90.17 C 166.55 89.79 167.33 89.6 168.2 89.6 C 169.67 89.6 170.78 90.03 171.53 90.88 C 172.28 91.73 172.66 92.96 172.66 94.56 C 172.66 95.7 172.47 96.66 172.09 97.44 C 171.71 98.22 171.18 98.81 170.49 99.19 C 169.81 99.58 168.99 99.77 168.04 99.77 Z  M 165.6 94.57 C 165.6 95.98 165.82 97.07 166.27 97.83 C 166.72 98.59 167.36 98.97 168.2 98.97 C 168.66 98.97 169.05 98.86 169.37 98.64 C 169.69 98.42 169.95 98.12 170.16 97.74 C 170.36 97.36 170.51 96.93 170.6 96.43 C 170.69 95.93 170.73 95.41 170.73 94.87 C 170.73 93.86 170.62 93.03 170.4 92.36 C 170.18 91.69 169.87 91.21 169.49 90.89 C 169.11 90.58 168.67 90.42 168.17 90.42 C 167.34 90.42 166.7 90.78 166.26 91.5 C 165.82 92.21 165.6 93.24 165.6 94.57 Z " fill="rgb(1,159,75)"/><path d=" M 177.53 91.48 L 177.67 91.51 C 178.05 91.05 178.4 90.69 178.72 90.42 C 179.04 90.16 179.39 89.95 179.76 89.81 C 180.13 89.67 180.56 89.59 181.03 89.59 C 181.43 89.59 181.79 89.61 182.11 89.65 L 182.11 92.02 L 180.95 92.02 C 180.79 91.65 180.61 91.38 180.43 91.21 C 180.24 91.04 179.99 90.96 179.67 90.96 C 179.42 90.96 179.18 91.03 178.93 91.18 C 178.69 91.32 178.45 91.53 178.23 91.8 C 178 92.08 177.85 92.33 177.76 92.57 C 177.67 92.81 177.63 93.09 177.63 93.42 L 177.63 97.02 C 177.63 97.64 177.67 98.07 177.74 98.31 C 177.82 98.55 177.94 98.72 178.12 98.83 C 178.3 98.94 178.56 99.02 178.91 99.09 L 178.91 99.59 L 174.77 99.59 L 174.77 99.09 C 175.03 99.01 175.22 98.94 175.33 98.87 C 175.44 98.81 175.54 98.72 175.62 98.61 C 175.7 98.5 175.76 98.33 175.81 98.11 C 175.85 97.88 175.87 97.53 175.87 97.05 L 175.87 92.57 C 175.87 92.13 175.86 91.78 175.85 91.51 C 175.84 91.24 175.79 91.03 175.71 90.87 C 175.63 90.71 175.5 90.59 175.33 90.51 C 175.16 90.43 174.92 90.36 174.61 90.31 L 174.61 89.77 L 177.02 89.67 L 177.65 89.67 L 177.53 91.48 Z " fill="rgb(1,159,75)"/><path d=" M 186.24 91.36 L 186.38 91.4 C 186.79 90.99 187.13 90.68 187.39 90.47 C 187.65 90.26 187.91 90.09 188.16 89.97 C 188.41 89.84 188.64 89.75 188.85 89.7 C 189.07 89.64 189.29 89.62 189.51 89.62 C 190.2 89.62 190.75 89.78 191.19 90.09 C 191.62 90.4 191.92 90.89 192.08 91.54 C 192.59 91.02 193.01 90.64 193.33 90.39 C 193.65 90.14 193.97 89.95 194.31 89.82 C 194.64 89.69 195 89.62 195.38 89.62 C 195.84 89.62 196.24 89.69 196.57 89.82 C 196.9 89.95 197.18 90.16 197.41 90.44 C 197.64 90.72 197.81 91.07 197.91 91.48 C 198.02 91.9 198.07 92.46 198.07 93.17 L 198.07 97.05 C 198.07 97.57 198.09 97.93 198.12 98.13 C 198.15 98.33 198.2 98.48 198.27 98.59 C 198.34 98.7 198.43 98.79 198.56 98.87 C 198.69 98.95 198.91 99.03 199.22 99.11 L 199.22 99.61 L 195.18 99.61 L 195.18 99.11 C 195.45 99.03 195.64 98.96 195.76 98.89 C 195.88 98.83 195.97 98.74 196.05 98.63 C 196.13 98.52 196.19 98.35 196.24 98.12 C 196.28 97.89 196.31 97.54 196.31 97.08 L 196.31 94.39 C 196.31 93.81 196.29 93.33 196.26 92.94 C 196.23 92.56 196.18 92.26 196.12 92.03 C 196.06 91.8 195.98 91.63 195.88 91.5 C 195.79 91.37 195.68 91.26 195.57 91.16 C 195.45 91.06 195.32 90.99 195.16 90.93 C 195 90.87 194.79 90.85 194.53 90.85 C 194.26 90.85 194 90.91 193.76 91.02 C 193.52 91.13 193.27 91.31 192.99 91.58 C 192.71 91.84 192.51 92.1 192.39 92.37 C 192.27 92.63 192.21 92.94 192.21 93.3 L 192.21 97.05 C 192.21 97.57 192.23 97.93 192.26 98.13 C 192.29 98.33 192.34 98.48 192.41 98.59 C 192.47 98.7 192.57 98.79 192.7 98.87 C 192.83 98.95 193.05 99.03 193.36 99.11 L 193.36 99.61 L 189.32 99.61 L 189.32 99.11 C 189.59 99.03 189.78 98.96 189.9 98.89 C 190.02 98.83 190.12 98.74 190.19 98.63 C 190.27 98.52 190.33 98.35 190.37 98.12 C 190.41 97.89 190.44 97.54 190.44 97.08 L 190.44 94.39 C 190.44 93.78 190.42 93.28 190.39 92.9 C 190.36 92.52 190.3 92.21 190.23 91.97 C 190.16 91.74 190.07 91.55 189.95 91.41 C 189.84 91.27 189.72 91.16 189.61 91.08 C 189.49 91 189.36 90.95 189.2 90.91 C 189.04 90.87 188.86 90.85 188.66 90.85 C 188.38 90.85 188.12 90.91 187.87 91.04 C 187.62 91.17 187.37 91.35 187.11 91.59 C 186.85 91.83 186.66 92.08 186.53 92.34 C 186.4 92.6 186.33 92.88 186.33 93.18 L 186.33 97.04 C 186.33 97.43 186.34 97.73 186.36 97.94 C 186.38 98.14 186.41 98.31 186.46 98.42 C 186.5 98.54 186.56 98.63 186.63 98.7 C 186.7 98.77 186.8 98.84 186.92 98.91 C 187.05 98.98 187.24 99.04 187.49 99.11 L 187.49 99.61 L 183.46 99.61 L 183.46 99.11 C 183.72 99.03 183.91 98.96 184.02 98.89 C 184.13 98.83 184.23 98.74 184.31 98.63 C 184.39 98.52 184.45 98.35 184.49 98.13 C 184.53 97.9 184.55 97.55 184.55 97.07 L 184.55 92.59 C 184.55 92.15 184.54 91.8 184.53 91.53 C 184.52 91.26 184.47 91.05 184.39 90.89 C 184.31 90.73 184.18 90.61 184.01 90.53 C 183.84 90.45 183.6 90.38 183.3 90.33 L 183.3 89.78 L 185.71 89.69 L 186.34 89.69 L 186.24 91.36 Z " fill="rgb(1,159,75)"/><path d=" M 206.93 98.13 L 206.78 98.09 C 206.18 98.7 205.62 99.13 205.1 99.39 C 204.58 99.64 204.02 99.77 203.43 99.77 C 202.91 99.77 202.45 99.67 202.05 99.47 C 201.65 99.27 201.35 98.98 201.14 98.62 C 200.93 98.25 200.82 97.83 200.82 97.35 C 200.82 96.35 201.31 95.58 202.31 95.03 C 203.3 94.49 204.79 94.17 206.77 94.08 L 206.77 93.41 C 206.77 92.7 206.7 92.13 206.56 91.72 C 206.42 91.31 206.21 91.01 205.91 90.82 C 205.62 90.63 205.22 90.53 204.73 90.53 C 204.19 90.53 203.77 90.67 203.44 90.95 C 203.11 91.23 202.87 91.65 202.7 92.21 L 201.35 92.21 L 201.35 90.87 C 202.01 90.53 202.56 90.28 203 90.11 C 203.44 89.95 203.88 89.82 204.32 89.73 C 204.76 89.64 205.2 89.59 205.66 89.59 C 206.34 89.59 206.88 89.7 207.3 89.91 C 207.71 90.13 208.02 90.46 208.22 90.9 C 208.43 91.35 208.53 92.02 208.53 92.92 L 208.53 96.5 C 208.53 97.01 208.53 97.37 208.54 97.57 C 208.55 97.78 208.57 97.97 208.6 98.15 C 208.63 98.33 208.69 98.47 208.75 98.58 C 208.82 98.69 208.92 98.78 209.05 98.85 C 209.18 98.93 209.4 99 209.7 99.09 L 209.7 99.59 L 206.88 99.59 L 206.93 98.13 Z  M 206.75 94.92 C 205.36 94.93 204.32 95.12 203.62 95.48 C 202.93 95.84 202.58 96.38 202.58 97.09 C 202.58 97.48 202.66 97.79 202.82 98.02 C 202.98 98.25 203.18 98.4 203.42 98.49 C 203.66 98.58 203.94 98.62 204.27 98.62 C 204.74 98.62 205.16 98.51 205.54 98.28 C 205.92 98.05 206.22 97.77 206.43 97.42 C 206.64 97.07 206.75 96.72 206.75 96.38 L 206.75 94.92 Z " fill="rgb(1,159,75)"/><path d=" M 210.65 90.29 C 210.99 90.23 211.27 90.14 211.48 90 C 211.69 89.86 211.86 89.69 211.98 89.47 C 212.1 89.25 212.19 88.98 212.26 88.66 C 212.33 88.33 212.4 87.86 212.48 87.24 L 213.94 87.24 L 213.94 89.78 L 217.26 89.78 L 217.26 90.82 L 213.94 90.82 L 213.94 95.4 C 213.94 96.07 213.97 96.59 214.02 96.99 C 214.07 97.38 214.18 97.69 214.33 97.92 C 214.48 98.14 214.65 98.3 214.84 98.4 C 215.03 98.5 215.28 98.54 215.58 98.54 C 215.85 98.54 216.11 98.48 216.35 98.37 C 216.59 98.26 216.83 98.09 217.06 97.88 L 217.52 98.44 C 217.03 98.91 216.57 99.26 216.14 99.47 C 215.7 99.68 215.25 99.79 214.79 99.79 C 213.91 99.79 213.25 99.53 212.82 99 C 212.39 98.48 212.17 97.65 212.17 96.54 L 212.17 90.83 L 210.65 90.83 L 210.65 90.29 L 210.65 90.29 Z " fill="rgb(1,159,75)"/><path d=" M 218.39 99.1 C 218.66 99.02 218.85 98.95 218.96 98.88 C 219.07 98.82 219.17 98.73 219.25 98.62 C 219.33 98.51 219.39 98.34 219.43 98.12 C 219.47 97.89 219.5 97.54 219.5 97.06 L 219.5 92.58 C 219.5 92.14 219.49 91.79 219.48 91.52 C 219.47 91.25 219.42 91.04 219.34 90.88 C 219.26 90.72 219.13 90.6 218.96 90.52 C 218.79 90.44 218.55 90.37 218.24 90.32 L 218.24 89.77 L 220.64 89.68 L 221.27 89.68 L 221.27 97.03 C 221.27 97.62 221.3 98.03 221.35 98.26 C 221.41 98.49 221.51 98.66 221.66 98.79 C 221.81 98.91 222.07 99.01 222.42 99.1 L 222.42 99.6 L 218.39 99.6 L 218.39 99.1 Z  M 221.34 85.74 L 221.34 87.74 L 219.45 87.74 L 219.45 85.74 L 221.34 85.74 Z " fill="rgb(1,159,75)"/><path d=" M 231.91 90.01 L 231.91 92.16 L 230.6 92.16 C 230.48 91.72 230.34 91.36 230.17 91.11 C 230 90.85 229.8 90.67 229.57 90.57 C 229.34 90.47 229.06 90.42 228.73 90.42 C 228.25 90.42 227.82 90.57 227.45 90.88 C 227.08 91.19 226.79 91.66 226.57 92.29 C 226.35 92.92 226.25 93.69 226.25 94.6 C 226.25 95.18 226.29 95.72 226.37 96.2 C 226.45 96.68 226.59 97.1 226.79 97.44 C 226.99 97.78 227.25 98.05 227.58 98.24 C 227.91 98.43 228.32 98.53 228.8 98.53 C 229.27 98.53 229.71 98.44 230.12 98.25 C 230.53 98.07 230.95 97.74 231.39 97.27 L 231.98 97.95 C 231.63 98.33 231.32 98.63 231.05 98.84 C 230.78 99.05 230.5 99.22 230.19 99.36 C 229.89 99.5 229.58 99.6 229.29 99.67 C 228.99 99.74 228.67 99.77 228.32 99.77 C 227.02 99.77 226.03 99.34 225.35 98.48 C 224.66 97.62 224.32 96.38 224.32 94.75 C 224.32 93.73 224.51 92.84 224.9 92.05 C 225.28 91.26 225.82 90.66 226.51 90.23 C 227.2 89.8 228 89.59 228.91 89.59 C 229.47 89.59 229.99 89.62 230.47 89.69 C 230.95 89.76 231.43 89.87 231.91 90.01 Z " fill="rgb(1,159,75)"/><path d=" M 240.42 92.03 L 239.43 92.03 C 239.28 91.62 239.1 91.29 238.9 91.06 C 238.69 90.82 238.46 90.66 238.2 90.56 C 237.94 90.46 237.62 90.42 237.24 90.42 C 236.69 90.42 236.25 90.55 235.93 90.81 C 235.6 91.07 235.44 91.42 235.44 91.86 C 235.44 92.18 235.51 92.44 235.64 92.64 C 235.77 92.85 235.97 93.04 236.25 93.22 C 236.52 93.4 237.01 93.63 237.7 93.93 C 238.4 94.23 238.94 94.51 239.32 94.76 C 239.7 95.01 240 95.31 240.21 95.64 C 240.43 95.98 240.53 96.38 240.53 96.84 C 240.53 97.38 240.44 97.84 240.25 98.21 C 240.07 98.58 239.8 98.88 239.47 99.12 C 239.13 99.35 238.73 99.52 238.27 99.62 C 237.81 99.72 237.3 99.77 236.75 99.77 C 236.17 99.77 235.62 99.73 235.07 99.64 C 234.53 99.55 234 99.44 233.49 99.31 L 233.49 97.16 L 234.5 97.16 C 234.69 97.79 234.96 98.25 235.32 98.53 C 235.68 98.82 236.18 98.96 236.82 98.96 C 237.07 98.96 237.31 98.93 237.55 98.88 C 237.79 98.83 238 98.74 238.18 98.62 C 238.36 98.5 238.51 98.34 238.62 98.13 C 238.73 97.93 238.78 97.67 238.78 97.36 C 238.78 97.01 238.71 96.73 238.57 96.51 C 238.43 96.29 238.22 96.09 237.93 95.91 C 237.64 95.73 237.13 95.48 236.41 95.17 C 235.79 94.91 235.29 94.66 234.91 94.41 C 234.53 94.16 234.24 93.87 234.02 93.54 C 233.8 93.2 233.7 92.81 233.7 92.35 C 233.7 91.79 233.85 91.3 234.16 90.88 C 234.46 90.46 234.91 90.15 235.48 89.93 C 236.06 89.71 236.73 89.6 237.51 89.6 C 237.96 89.6 238.4 89.62 238.82 89.67 C 239.24 89.71 239.77 89.8 240.41 89.93 L 240.41 92.03 L 240.42 92.03 Z " fill="rgb(1,159,75)"/><path d=" M 250.6 97.03 C 250.6 97.49 250.62 97.83 250.65 98.04 C 250.68 98.25 250.73 98.42 250.8 98.54 C 250.87 98.66 250.98 98.77 251.12 98.85 C 251.26 98.93 251.49 99.01 251.8 99.1 L 251.8 99.6 L 247.46 99.6 L 247.46 99.1 C 247.88 98.99 248.17 98.87 248.31 98.74 C 248.45 98.61 248.55 98.42 248.59 98.17 C 248.63 97.92 248.66 97.55 248.66 97.04 L 248.66 88.14 C 248.66 87.67 248.64 87.32 248.61 87.11 C 248.58 86.89 248.52 86.73 248.44 86.61 C 248.36 86.49 248.26 86.39 248.13 86.32 C 248 86.25 247.78 86.17 247.46 86.08 L 247.46 85.58 L 251.8 85.58 L 251.8 86.08 C 251.5 86.16 251.28 86.23 251.15 86.31 C 251.02 86.39 250.91 86.48 250.83 86.59 C 250.75 86.7 250.69 86.87 250.66 87.1 C 250.62 87.33 250.6 87.68 250.6 88.15 L 250.6 97.03 L 250.6 97.03 Z " fill="rgb(1,159,75)"/><path d=" M 264.06 99.6 L 260.01 99.6 L 260.01 99.1 C 260.28 99.02 260.47 98.95 260.59 98.88 C 260.71 98.82 260.8 98.73 260.88 98.62 C 260.96 98.51 261.02 98.34 261.07 98.11 C 261.11 97.88 261.14 97.53 261.14 97.07 L 261.14 94.38 C 261.14 93.9 261.13 93.46 261.1 93.07 C 261.07 92.68 261.03 92.36 260.96 92.11 C 260.89 91.86 260.82 91.67 260.72 91.52 C 260.63 91.38 260.52 91.26 260.39 91.16 C 260.26 91.06 260.12 90.98 259.95 90.92 C 259.79 90.86 259.57 90.83 259.3 90.83 C 259.03 90.83 258.78 90.88 258.54 90.99 C 258.3 91.1 258.04 91.28 257.75 91.54 C 257.46 91.8 257.25 92.06 257.12 92.31 C 256.99 92.56 256.92 92.85 256.92 93.18 L 256.92 97.02 C 256.92 97.61 256.95 98.02 257 98.25 C 257.05 98.48 257.16 98.65 257.31 98.78 C 257.46 98.9 257.72 99 258.07 99.09 L 258.07 99.59 L 254.04 99.59 L 254.04 99.09 C 254.31 99.01 254.5 98.94 254.61 98.87 C 254.72 98.81 254.82 98.72 254.9 98.61 C 254.98 98.5 255.04 98.33 255.09 98.11 C 255.13 97.88 255.16 97.53 255.16 97.05 L 255.16 92.57 C 255.16 92.13 255.15 91.78 255.14 91.51 C 255.13 91.24 255.08 91.03 255 90.87 C 254.92 90.71 254.79 90.59 254.62 90.51 C 254.45 90.43 254.21 90.36 253.91 90.31 L 253.91 89.76 L 256.32 89.67 L 256.95 89.67 L 256.83 91.36 L 256.97 91.4 C 257.48 90.89 257.89 90.52 258.2 90.3 C 258.51 90.08 258.83 89.91 259.15 89.79 C 259.47 89.67 259.81 89.61 260.16 89.61 C 260.53 89.61 260.86 89.65 261.15 89.74 C 261.44 89.83 261.7 89.96 261.92 90.14 C 262.14 90.32 262.33 90.54 262.47 90.8 C 262.61 91.06 262.72 91.38 262.79 91.75 C 262.86 92.12 262.9 92.59 262.9 93.16 L 262.9 97.04 C 262.9 97.51 262.91 97.86 262.94 98.07 C 262.97 98.28 263.02 98.45 263.08 98.56 C 263.15 98.68 263.25 98.77 263.38 98.85 C 263.51 98.93 263.74 99.01 264.06 99.1 L 264.06 99.6 Z " fill="rgb(1,159,75)"/><path d=" M 271.09 90.81 L 268.63 90.81 L 268.63 97.03 C 268.63 97.49 268.65 97.84 268.7 98.07 C 268.74 98.3 268.81 98.48 268.89 98.6 C 268.98 98.72 269.09 98.82 269.23 98.89 C 269.37 98.96 269.59 99.03 269.9 99.1 L 269.9 99.6 L 265.69 99.6 L 265.69 99.1 C 265.99 99.02 266.21 98.94 266.34 98.86 C 266.47 98.78 266.57 98.69 266.64 98.57 C 266.71 98.45 266.76 98.29 266.8 98.07 C 266.83 97.85 266.85 97.5 266.85 97.03 L 266.85 90.81 L 265.6 90.81 L 265.6 90.29 C 265.86 90.25 266.03 90.22 266.12 90.19 C 266.21 90.17 266.29 90.13 266.37 90.08 C 266.45 90.03 266.52 89.96 266.58 89.87 C 266.64 89.78 266.69 89.65 266.73 89.47 C 266.77 89.3 266.81 89.05 266.84 88.73 C 266.9 87.98 267.04 87.38 267.25 86.91 C 267.46 86.44 267.76 86.05 268.17 85.72 C 268.57 85.39 269 85.16 269.45 85.03 C 269.91 84.9 270.44 84.83 271.06 84.83 C 271.6 84.83 272.06 84.87 272.44 84.94 L 272.44 86.8 L 271.42 86.8 C 271.29 86.4 271.14 86.11 270.96 85.94 C 270.78 85.77 270.54 85.69 270.23 85.69 C 270 85.69 269.81 85.72 269.66 85.78 C 269.51 85.84 269.36 85.94 269.23 86.07 C 269.1 86.2 268.99 86.38 268.9 86.59 C 268.81 86.81 268.74 87.08 268.69 87.41 C 268.64 87.74 268.62 88.16 268.62 88.68 L 268.62 89.76 L 271.08 89.76 L 271.08 90.81 L 271.09 90.81 Z " fill="rgb(1,159,75)"/><path d=" M 274.96 91.48 L 275.1 91.51 C 275.48 91.05 275.83 90.69 276.15 90.42 C 276.47 90.16 276.82 89.95 277.19 89.81 C 277.56 89.67 277.99 89.59 278.46 89.59 C 278.86 89.59 279.22 89.61 279.54 89.65 L 279.54 92.02 L 278.38 92.02 C 278.22 91.65 278.04 91.38 277.86 91.21 C 277.67 91.04 277.42 90.96 277.1 90.96 C 276.85 90.96 276.61 91.03 276.37 91.18 C 276.13 91.32 275.89 91.53 275.67 91.8 C 275.44 92.08 275.29 92.33 275.2 92.57 C 275.11 92.81 275.07 93.09 275.07 93.42 L 275.07 97.02 C 275.07 97.64 275.11 98.07 275.18 98.31 C 275.26 98.55 275.38 98.72 275.56 98.83 C 275.73 98.94 276 99.02 276.35 99.09 L 276.35 99.59 L 272.21 99.59 L 272.21 99.09 C 272.47 99.01 272.66 98.94 272.77 98.87 C 272.88 98.81 272.98 98.72 273.06 98.61 C 273.14 98.5 273.2 98.33 273.25 98.11 C 273.29 97.88 273.31 97.53 273.31 97.05 L 273.31 92.57 C 273.31 92.13 273.3 91.78 273.29 91.51 C 273.28 91.24 273.23 91.03 273.15 90.87 C 273.07 90.71 272.94 90.59 272.77 90.51 C 272.6 90.43 272.36 90.36 272.06 90.31 L 272.06 89.77 L 274.47 89.67 L 275.1 89.67 L 274.96 91.48 Z " fill="rgb(1,159,75)"/><path d=" M 286.47 98.13 L 286.32 98.09 C 285.72 98.7 285.16 99.13 284.64 99.39 C 284.12 99.64 283.56 99.77 282.97 99.77 C 282.45 99.77 281.99 99.67 281.59 99.47 C 281.19 99.27 280.89 98.98 280.67 98.62 C 280.46 98.25 280.35 97.83 280.35 97.35 C 280.35 96.35 280.85 95.58 281.84 95.03 C 282.83 94.49 284.32 94.17 286.3 94.08 L 286.3 93.41 C 286.3 92.7 286.23 92.13 286.09 91.72 C 285.95 91.31 285.74 91.01 285.44 90.82 C 285.15 90.63 284.75 90.53 284.26 90.53 C 283.73 90.53 283.3 90.67 282.97 90.95 C 282.64 91.23 282.4 91.65 282.23 92.21 L 280.88 92.21 L 280.88 90.87 C 281.54 90.53 282.09 90.28 282.53 90.11 C 282.97 89.95 283.41 89.82 283.85 89.73 C 284.29 89.64 284.73 89.59 285.19 89.59 C 285.87 89.59 286.41 89.7 286.83 89.91 C 287.24 90.13 287.55 90.46 287.76 90.9 C 287.97 91.35 288.07 92.02 288.07 92.92 L 288.07 96.5 C 288.07 97.01 288.07 97.37 288.08 97.57 C 288.09 97.78 288.11 97.97 288.14 98.15 C 288.17 98.33 288.23 98.47 288.29 98.58 C 288.36 98.69 288.46 98.78 288.59 98.85 C 288.72 98.93 288.94 99 289.24 99.09 L 289.24 99.59 L 286.42 99.59 L 286.47 98.13 Z  M 286.3 94.92 C 284.91 94.93 283.87 95.12 283.17 95.48 C 282.48 95.84 282.13 96.38 282.13 97.09 C 282.13 97.48 282.21 97.79 282.37 98.02 C 282.53 98.25 282.73 98.4 282.97 98.49 C 283.21 98.58 283.49 98.62 283.82 98.62 C 284.29 98.62 284.71 98.51 285.09 98.28 C 285.47 98.05 285.77 97.77 285.98 97.42 C 286.19 97.07 286.3 96.72 286.3 96.38 L 286.3 94.92 Z " fill="rgb(1,159,75)"/><path d=" M 297.7 92.03 L 296.71 92.03 C 296.56 91.62 296.38 91.29 296.17 91.06 C 295.96 90.82 295.73 90.66 295.47 90.56 C 295.21 90.46 294.89 90.42 294.51 90.42 C 293.96 90.42 293.52 90.55 293.2 90.81 C 292.87 91.07 292.71 91.42 292.71 91.86 C 292.71 92.18 292.78 92.44 292.91 92.64 C 293.04 92.85 293.24 93.04 293.52 93.22 C 293.79 93.4 294.28 93.63 294.97 93.93 C 295.67 94.23 296.21 94.51 296.59 94.76 C 296.97 95.01 297.27 95.31 297.48 95.64 C 297.7 95.98 297.8 96.38 297.8 96.84 C 297.8 97.38 297.71 97.84 297.52 98.21 C 297.33 98.58 297.07 98.88 296.74 99.12 C 296.4 99.35 296 99.52 295.54 99.62 C 295.08 99.72 294.57 99.77 294.02 99.77 C 293.44 99.77 292.88 99.73 292.34 99.64 C 291.8 99.55 291.27 99.44 290.76 99.31 L 290.76 97.16 L 291.77 97.16 C 291.95 97.79 292.23 98.25 292.59 98.53 C 292.95 98.82 293.45 98.96 294.09 98.96 C 294.34 98.96 294.58 98.93 294.82 98.88 C 295.06 98.83 295.27 98.74 295.45 98.62 C 295.63 98.5 295.78 98.34 295.89 98.13 C 296 97.93 296.05 97.67 296.05 97.36 C 296.05 97.01 295.98 96.73 295.84 96.51 C 295.7 96.29 295.49 96.09 295.2 95.91 C 294.91 95.73 294.4 95.48 293.68 95.17 C 293.06 94.91 292.56 94.66 292.18 94.41 C 291.8 94.16 291.51 93.87 291.29 93.54 C 291.07 93.2 290.97 92.81 290.97 92.35 C 290.97 91.79 291.12 91.3 291.43 90.88 C 291.73 90.46 292.17 90.15 292.75 89.93 C 293.33 89.71 294 89.6 294.78 89.6 C 295.23 89.6 295.67 89.62 296.09 89.67 C 296.51 89.71 297.04 89.8 297.68 89.93 L 297.68 92.03 L 297.7 92.03 Z " fill="rgb(1,159,75)"/><path d=" M 299.25 90.29 C 299.59 90.23 299.87 90.14 300.08 90 C 300.29 89.86 300.46 89.69 300.58 89.47 C 300.7 89.25 300.79 88.98 300.86 88.66 C 300.93 88.33 301 87.86 301.08 87.24 L 302.54 87.24 L 302.54 89.78 L 305.86 89.78 L 305.86 90.82 L 302.54 90.82 L 302.54 95.4 C 302.54 96.07 302.57 96.59 302.62 96.99 C 302.67 97.38 302.78 97.69 302.93 97.92 C 303.08 98.14 303.25 98.3 303.44 98.4 C 303.63 98.5 303.88 98.54 304.18 98.54 C 304.45 98.54 304.71 98.48 304.95 98.37 C 305.19 98.26 305.43 98.09 305.66 97.88 L 306.12 98.44 C 305.63 98.91 305.17 99.26 304.74 99.47 C 304.3 99.68 303.85 99.79 303.39 99.79 C 302.51 99.79 301.85 99.53 301.42 99 C 300.99 98.48 300.77 97.65 300.77 96.54 L 300.77 90.83 L 299.25 90.83 L 299.25 90.29 L 299.25 90.29 Z " fill="rgb(1,159,75)"/><path d=" M 309.77 91.48 L 309.91 91.51 C 310.29 91.05 310.64 90.69 310.96 90.42 C 311.28 90.16 311.63 89.95 312 89.81 C 312.37 89.67 312.8 89.59 313.27 89.59 C 313.67 89.59 314.03 89.61 314.35 89.65 L 314.35 92.02 L 313.19 92.02 C 313.03 91.65 312.85 91.38 312.67 91.21 C 312.49 91.04 312.23 90.96 311.91 90.96 C 311.66 90.96 311.42 91.03 311.17 91.18 C 310.93 91.32 310.69 91.53 310.47 91.8 C 310.24 92.08 310.09 92.33 310 92.57 C 309.91 92.81 309.87 93.09 309.87 93.42 L 309.87 97.02 C 309.87 97.64 309.91 98.07 309.98 98.31 C 310.06 98.55 310.18 98.72 310.36 98.83 C 310.53 98.94 310.8 99.02 311.15 99.09 L 311.15 99.59 L 307.01 99.59 L 307.01 99.09 C 307.27 99.01 307.46 98.94 307.57 98.87 C 307.68 98.81 307.78 98.72 307.86 98.61 C 307.94 98.5 308 98.33 308.05 98.11 C 308.09 97.88 308.11 97.53 308.11 97.05 L 308.11 92.57 C 308.11 92.13 308.1 91.78 308.09 91.51 C 308.08 91.24 308.03 91.03 307.95 90.87 C 307.87 90.71 307.74 90.59 307.57 90.51 C 307.4 90.43 307.16 90.36 306.86 90.31 L 306.86 89.77 L 309.27 89.67 L 309.9 89.67 L 309.77 91.48 Z " fill="rgb(1,159,75)"/><path d=" M 315.45 89.77 L 318.38 89.77 L 318.38 95 C 318.38 95.8 318.41 96.41 318.47 96.83 C 318.53 97.25 318.62 97.56 318.75 97.78 C 318.87 97.99 319.05 98.17 319.27 98.31 C 319.5 98.45 319.81 98.53 320.21 98.53 C 320.47 98.53 320.72 98.48 320.96 98.38 C 321.2 98.28 321.47 98.1 321.76 97.84 C 322.05 97.58 322.27 97.33 322.39 97.07 C 322.52 96.82 322.58 96.52 322.58 96.19 L 322.58 92.33 C 322.58 91.94 322.57 91.64 322.55 91.45 C 322.53 91.25 322.5 91.09 322.45 90.97 C 322.4 90.85 322.35 90.75 322.28 90.68 C 322.21 90.6 322.12 90.54 322 90.47 C 321.88 90.41 321.69 90.34 321.42 90.28 L 321.42 89.78 L 324.35 89.78 L 324.35 96.8 C 324.35 97.33 324.36 97.71 324.38 97.94 C 324.4 98.17 324.45 98.36 324.51 98.49 C 324.58 98.63 324.68 98.74 324.83 98.82 C 324.97 98.9 325.23 98.99 325.6 99.06 L 325.6 99.59 L 323.25 99.69 L 322.62 99.69 L 322.68 98 L 322.53 97.96 C 321.96 98.58 321.42 99.03 320.9 99.32 C 320.38 99.61 319.86 99.75 319.34 99.75 C 318.72 99.75 318.2 99.63 317.8 99.38 C 317.4 99.13 317.09 98.76 316.89 98.27 C 316.69 97.78 316.59 97.09 316.59 96.2 L 316.59 92.31 C 316.59 91.74 316.57 91.34 316.52 91.12 C 316.48 90.9 316.39 90.73 316.26 90.61 C 316.13 90.48 315.86 90.37 315.43 90.26 L 315.43 89.77 L 315.45 89.77 Z " fill="rgb(1,159,75)"/><path d=" M 334.99 90.01 L 334.99 92.16 L 333.68 92.16 C 333.56 91.72 333.42 91.36 333.25 91.11 C 333.08 90.85 332.88 90.67 332.65 90.57 C 332.42 90.47 332.14 90.42 331.81 90.42 C 331.33 90.42 330.9 90.57 330.53 90.88 C 330.16 91.19 329.87 91.66 329.65 92.29 C 329.43 92.92 329.33 93.69 329.33 94.6 C 329.33 95.18 329.37 95.72 329.45 96.2 C 329.53 96.68 329.67 97.1 329.87 97.44 C 330.07 97.78 330.33 98.05 330.66 98.24 C 330.99 98.43 331.4 98.53 331.88 98.53 C 332.35 98.53 332.79 98.44 333.2 98.25 C 333.61 98.07 334.03 97.74 334.47 97.27 L 335.06 97.95 C 334.71 98.33 334.4 98.63 334.14 98.84 C 333.87 99.05 333.59 99.22 333.28 99.36 C 332.97 99.5 332.67 99.6 332.37 99.67 C 332.07 99.74 331.75 99.77 331.4 99.77 C 330.1 99.77 329.11 99.34 328.43 98.48 C 327.74 97.62 327.4 96.38 327.4 94.75 C 327.4 93.73 327.59 92.84 327.98 92.05 C 328.36 91.26 328.9 90.66 329.59 90.23 C 330.28 89.81 331.08 89.59 331.99 89.59 C 332.55 89.59 333.07 89.62 333.55 89.69 C 334.04 89.76 334.51 89.87 334.99 90.01 Z " fill="rgb(1,159,75)"/><path d=" M 336 90.29 C 336.34 90.23 336.62 90.14 336.83 90 C 337.04 89.86 337.21 89.69 337.33 89.47 C 337.45 89.25 337.54 88.98 337.61 88.66 C 337.68 88.33 337.75 87.86 337.83 87.24 L 339.29 87.24 L 339.29 89.78 L 342.61 89.78 L 342.61 90.82 L 339.29 90.82 L 339.29 95.4 C 339.29 96.07 339.32 96.59 339.37 96.99 C 339.42 97.38 339.53 97.69 339.68 97.92 C 339.83 98.14 340 98.3 340.19 98.4 C 340.38 98.5 340.63 98.54 340.93 98.54 C 341.2 98.54 341.46 98.48 341.7 98.37 C 341.94 98.26 342.18 98.09 342.41 97.88 L 342.87 98.44 C 342.38 98.91 341.92 99.26 341.49 99.47 C 341.05 99.68 340.6 99.79 340.14 99.79 C 339.26 99.79 338.6 99.53 338.17 99 C 337.74 98.48 337.52 97.65 337.52 96.54 L 337.52 90.83 L 336 90.83 L 336 90.29 L 336 90.29 Z " fill="rgb(1,159,75)"/><path d=" M 343.5 89.77 L 346.43 89.77 L 346.43 95 C 346.43 95.8 346.46 96.41 346.52 96.83 C 346.58 97.25 346.67 97.56 346.8 97.78 C 346.92 97.99 347.1 98.17 347.32 98.31 C 347.55 98.45 347.86 98.53 348.26 98.53 C 348.52 98.53 348.77 98.48 349.01 98.38 C 349.25 98.28 349.52 98.1 349.81 97.84 C 350.1 97.58 350.32 97.33 350.44 97.07 C 350.57 96.82 350.63 96.52 350.63 96.19 L 350.63 92.33 C 350.63 91.94 350.62 91.64 350.6 91.45 C 350.58 91.25 350.54 91.09 350.5 90.97 C 350.45 90.85 350.4 90.75 350.33 90.68 C 350.26 90.6 350.17 90.54 350.05 90.47 C 349.93 90.41 349.74 90.34 349.47 90.28 L 349.47 89.78 L 352.4 89.78 L 352.4 96.8 C 352.4 97.33 352.41 97.71 352.43 97.94 C 352.45 98.17 352.49 98.36 352.56 98.49 C 352.63 98.63 352.73 98.74 352.88 98.82 C 353.02 98.9 353.28 98.99 353.65 99.06 L 353.65 99.59 L 351.29 99.69 L 350.66 99.69 L 350.72 98 L 350.57 97.96 C 350 98.58 349.46 99.03 348.94 99.32 C 348.42 99.61 347.9 99.75 347.38 99.75 C 346.76 99.75 346.24 99.63 345.84 99.38 C 345.44 99.13 345.13 98.76 344.94 98.27 C 344.74 97.78 344.64 97.09 344.64 96.2 L 344.64 92.31 C 344.64 91.74 344.62 91.34 344.57 91.12 C 344.53 90.9 344.44 90.73 344.31 90.61 C 344.18 90.48 343.91 90.37 343.48 90.26 L 343.48 89.77 L 343.5 89.77 Z " fill="rgb(1,159,75)"/><path d=" M 358.15 91.48 L 358.29 91.51 C 358.67 91.05 359.02 90.69 359.34 90.42 C 359.66 90.16 360.01 89.95 360.38 89.81 C 360.75 89.67 361.18 89.59 361.65 89.59 C 362.05 89.59 362.41 89.61 362.73 89.65 L 362.73 92.02 L 361.57 92.02 C 361.41 91.65 361.23 91.38 361.05 91.21 C 360.86 91.04 360.61 90.96 360.29 90.96 C 360.04 90.96 359.8 91.03 359.55 91.18 C 359.31 91.32 359.07 91.53 358.85 91.8 C 358.62 92.08 358.47 92.33 358.38 92.57 C 358.29 92.81 358.25 93.09 358.25 93.42 L 358.25 97.02 C 358.25 97.64 358.29 98.07 358.36 98.31 C 358.44 98.55 358.56 98.72 358.74 98.83 C 358.91 98.94 359.18 99.02 359.53 99.09 L 359.53 99.59 L 355.39 99.59 L 355.39 99.09 C 355.65 99.01 355.84 98.94 355.95 98.87 C 356.06 98.81 356.16 98.72 356.24 98.61 C 356.32 98.5 356.38 98.33 356.42 98.11 C 356.46 97.88 356.48 97.53 356.48 97.05 L 356.48 92.57 C 356.48 92.13 356.47 91.78 356.46 91.51 C 356.45 91.24 356.4 91.03 356.32 90.87 C 356.24 90.71 356.11 90.59 355.94 90.51 C 355.77 90.43 355.53 90.36 355.23 90.31 L 355.23 89.77 L 357.64 89.67 L 358.27 89.67 L 358.15 91.48 Z " fill="rgb(1,159,75)"/><path d=" M 372 97.86 C 371.56 98.32 371.16 98.68 370.79 98.94 C 370.42 99.2 370.02 99.4 369.58 99.55 C 369.14 99.7 368.66 99.77 368.13 99.77 C 366.72 99.77 365.65 99.35 364.93 98.5 C 364.21 97.65 363.85 96.4 363.85 94.75 C 363.85 93.73 364.03 92.83 364.4 92.05 C 364.77 91.27 365.29 90.66 365.97 90.24 C 366.65 89.82 367.43 89.6 368.31 89.6 C 369 89.6 369.59 89.71 370.08 89.93 C 370.57 90.15 370.96 90.45 371.25 90.83 C 371.54 91.21 371.77 91.69 371.93 92.27 C 372.09 92.85 372.18 93.61 372.2 94.54 L 365.72 94.54 L 365.72 94.72 C 365.72 95.53 365.81 96.21 365.99 96.76 C 366.17 97.31 366.47 97.74 366.88 98.06 C 367.29 98.37 367.83 98.53 368.5 98.53 C 369.06 98.53 369.57 98.43 370.02 98.22 C 370.47 98.01 370.92 97.67 371.36 97.2 L 372 97.86 Z  M 370.27 93.68 C 370.23 92.94 370.14 92.33 369.99 91.86 C 369.85 91.39 369.63 91.03 369.34 90.78 C 369.05 90.53 368.67 90.41 368.21 90.41 C 367.5 90.41 366.94 90.69 366.52 91.26 C 366.1 91.83 365.85 92.63 365.77 93.68 L 370.27 93.68 Z " fill="rgb(1,159,75)"/></g><g><g><rect x="42.94" y="59.06" width="24.76" height="2.43" transform="matrix(1,0,0,1,0,0)" fill="rgb(1,159,75)"/></g><g><rect x="42.94" y="83.36" width="24.76" height="2.43" transform="matrix(1,0,0,1,0,0)" fill="rgb(1,159,75)"/></g><g><rect x="42.94" y="34.21" width="24.76" height="2.43" transform="matrix(1,0,0,1,0,0)" fill="rgb(1,159,75)"/></g><path d=" M 85.7 35.97 C 85.7 32.61 88.42 29.9 91.78 29.9 C 95.13 29.9 97.85 32.62 97.85 35.97 C 97.85 39.32 95.13 42.05 91.78 42.05 C 88.42 42.05 85.7 39.33 85.7 35.97 Z " fill="rgb(0,92,171)"/><path d=" M 85.7 60.27 C 85.7 56.92 88.42 54.2 91.78 54.2 C 95.13 54.2 97.85 56.92 97.85 60.27 C 97.85 63.63 95.13 66.35 91.78 66.35 C 88.42 66.35 85.7 63.63 85.7 60.27 Z " fill="rgb(0,92,171)"/><path d=" M 85.7 84.57 C 85.7 81.21 88.42 78.49 91.78 78.49 C 95.13 78.49 97.85 81.21 97.85 84.57 C 97.85 87.92 95.13 90.65 91.78 90.65 C 88.42 90.65 85.7 87.93 85.7 84.57 Z " fill="rgb(0,92,171)"/><path d=" M 73.55 23.27 C 73.55 19.92 76.27 17.2 79.62 17.2 C 82.98 17.2 85.7 19.92 85.7 23.27 C 85.7 26.62 82.98 29.34 79.62 29.34 C 76.27 29.35 73.55 26.63 73.55 23.27 Z " fill="rgb(0,92,171)"/><path d=" M 73.55 47.57 C 73.55 44.21 76.27 41.5 79.62 41.5 C 82.98 41.5 85.7 44.22 85.7 47.57 C 85.7 50.93 82.98 53.65 79.62 53.65 C 76.27 53.65 73.55 50.93 73.55 47.57 Z " fill="rgb(0,92,171)"/><path d=" M 73.55 72.42 C 73.55 69.06 76.27 66.34 79.62 66.34 C 82.98 66.34 85.7 69.06 85.7 72.42 C 85.7 75.78 82.98 78.49 79.62 78.49 C 76.27 78.5 73.55 75.78 73.55 72.42 Z " fill="rgb(0,92,171)"/><path d=" M 73.55 96.72 C 73.55 93.36 76.27 90.64 79.62 90.64 C 82.98 90.64 85.7 93.36 85.7 96.72 C 85.7 100.08 82.98 102.8 79.62 102.8 C 76.27 102.8 73.55 100.08 73.55 96.72 Z " fill="rgb(0,92,171)"/><path d=" M 61.4 35.42 C 61.4 32.06 64.12 29.34 67.48 29.34 C 70.84 29.34 73.55 32.06 73.55 35.42 C 73.55 38.77 70.83 41.5 67.48 41.5 C 64.12 41.5 61.4 38.78 61.4 35.42 Z " fill="rgb(1,159,75)"/><path d=" M 61.4 60.27 C 61.4 56.92 64.12 54.2 67.48 54.2 C 70.84 54.2 73.55 56.92 73.55 60.27 C 73.55 63.63 70.83 66.35 67.48 66.35 C 64.12 66.35 61.4 63.63 61.4 60.27 Z " fill="rgb(236,0,140)"/><path d=" M 61.4 84.57 C 61.4 81.21 64.12 78.49 67.48 78.49 C 70.84 78.49 73.55 81.21 73.55 84.57 C 73.55 87.92 70.83 90.65 67.48 90.65 C 64.12 90.65 61.4 87.93 61.4 84.57 Z " fill="rgb(1,159,75)"/><path d=" M 49.25 23.27 C 49.25 19.92 51.97 17.2 55.32 17.2 C 58.68 17.2 61.4 19.92 61.4 23.27 C 61.4 26.62 58.68 29.34 55.32 29.34 C 51.97 29.35 49.25 26.63 49.25 23.27 Z " fill="rgb(1,159,75)"/><path d=" M 49.25 47.57 C 49.25 44.21 51.97 41.5 55.32 41.5 C 58.68 41.5 61.4 44.22 61.4 47.57 C 61.4 50.93 58.68 53.65 55.32 53.65 C 51.97 53.65 49.25 50.93 49.25 47.57 Z " fill="rgb(1,159,75)"/><path d=" M 49.25 72.42 C 49.25 69.06 51.97 66.34 55.32 66.34 C 58.68 66.34 61.4 69.06 61.4 72.42 C 61.4 75.78 58.68 78.49 55.32 78.49 C 51.97 78.5 49.25 75.78 49.25 72.42 Z " fill="rgb(1,159,75)"/><path d=" M 49.25 96.72 C 49.25 93.36 51.97 90.64 55.32 90.64 C 58.68 90.64 61.4 93.36 61.4 96.72 C 61.4 100.08 58.68 102.8 55.32 102.8 C 51.97 102.8 49.25 100.08 49.25 96.72 Z " fill="rgb(1,159,75)"/><path d=" M 37.1 35.42 C 37.1 32.06 39.82 29.34 43.18 29.34 C 46.54 29.34 49.26 32.06 49.26 35.42 C 49.26 38.77 46.54 41.5 43.18 41.5 C 39.82 41.5 37.1 38.78 37.1 35.42 Z " fill="rgb(236,0,140)"/><path d=" M 37.1 60.27 C 37.1 56.92 39.82 54.2 43.18 54.2 C 46.54 54.2 49.26 56.92 49.26 60.27 C 49.26 63.63 46.54 66.35 43.18 66.35 C 39.82 66.35 37.1 63.63 37.1 60.27 Z " fill="rgb(1,159,75)"/><path d=" M 37.1 84.57 C 37.1 81.21 39.82 78.49 43.18 78.49 C 46.54 78.49 49.26 81.21 49.26 84.57 C 49.26 87.92 46.54 90.65 43.18 90.65 C 39.82 90.65 37.1 87.93 37.1 84.57 Z " fill="rgb(236,0,140)"/><path d=" M 24.95 23.27 C 24.95 19.92 27.67 17.2 31.03 17.2 C 34.38 17.2 37.1 19.92 37.1 23.27 C 37.1 26.62 34.38 29.34 31.03 29.34 C 27.67 29.35 24.95 26.63 24.95 23.27 Z " fill="rgb(0,92,171)"/><path d=" M 24.95 47.57 C 24.95 44.21 27.67 41.5 31.03 41.5 C 34.38 41.5 37.1 44.22 37.1 47.57 C 37.1 50.93 34.38 53.65 31.03 53.65 C 27.67 53.65 24.95 50.93 24.95 47.57 Z " fill="rgb(0,92,171)"/><path d=" M 24.95 72.42 C 24.95 69.06 27.67 66.34 31.03 66.34 C 34.38 66.34 37.1 69.06 37.1 72.42 C 37.1 75.78 34.38 78.49 31.03 78.49 C 27.67 78.5 24.95 75.78 24.95 72.42 Z " fill="rgb(0,92,171)"/><path d=" M 24.95 96.72 C 24.95 93.36 27.67 90.64 31.03 90.64 C 34.38 90.64 37.1 93.36 37.1 96.72 C 37.1 100.08 34.38 102.8 31.03 102.8 C 27.67 102.8 24.95 100.08 24.95 96.72 Z " fill="rgb(0,92,171)"/><path d=" M 12.8 35.97 C 12.8 32.61 15.52 29.9 18.87 29.9 C 22.23 29.9 24.95 32.62 24.95 35.97 C 24.95 39.32 22.23 42.05 18.87 42.05 C 15.52 42.05 12.8 39.33 12.8 35.97 Z " fill="rgb(0,92,171)"/><path d=" M 12.8 60.27 C 12.8 56.92 15.52 54.2 18.87 54.2 C 22.23 54.2 24.95 56.92 24.95 60.27 C 24.95 63.63 22.23 66.35 18.87 66.35 C 15.52 66.35 12.8 63.63 12.8 60.27 Z " fill="rgb(0,92,171)"/><path d=" M 12.8 84.57 C 12.8 81.21 15.52 78.49 18.87 78.49 C 22.23 78.49 24.95 81.21 24.95 84.57 C 24.95 87.92 22.23 90.65 18.87 90.65 C 15.52 90.65 12.8 87.93 12.8 84.57 Z " fill="rgb(0,92,171)"/></g><g><path d=" M 110.14 43.15 C 110.14 40.99 110.45 39.04 111.07 37.3 C 111.69 35.56 112.54 34.07 113.62 32.83 C 114.7 31.59 115.99 30.63 117.5 29.96 C 119.01 29.29 120.66 28.95 122.47 28.95 C 123.96 28.95 125.2 29.13 126.19 29.48 C 127.18 29.83 127.98 30.2 128.58 30.59 C 129.29 31.08 129.86 31.63 130.28 32.23 L 130.39 32.23 C 130.35 32.05 130.34 31.89 130.34 31.75 L 130.34 30.64 L 130.34 25.87 C 130.34 25.09 129.95 24.7 129.17 24.7 L 127.04 24.7 L 127.04 18.96 L 133.47 18.96 C 135.88 18.96 137.08 20.16 137.08 22.57 L 137.08 49.79 C 137.08 50.57 137.47 50.96 138.25 50.96 L 140.32 50.96 L 140.32 56.7 L 134.1 56.7 C 132.86 56.7 131.99 56.44 131.5 55.92 C 131 55.4 130.76 54.73 130.76 53.9 L 130.76 52.88 L 130.65 52.88 C 130.15 53.74 129.52 54.49 128.74 55.13 C 128.07 55.7 127.2 56.21 126.14 56.66 C 125.08 57.11 123.77 57.33 122.21 57.33 C 120.37 57.33 118.7 56.98 117.21 56.29 C 115.72 55.6 114.45 54.63 113.41 53.39 C 112.36 52.15 111.56 50.65 110.99 48.9 C 110.42 47.17 110.14 45.24 110.14 43.15 Z  M 123.69 51.61 C 124.58 51.61 125.43 51.44 126.24 51.1 C 127.05 50.76 127.78 50.25 128.42 49.56 C 129.06 48.87 129.56 47.98 129.93 46.9 C 130.3 45.82 130.49 44.53 130.49 43.05 C 130.49 41.99 130.36 40.96 130.09 39.97 C 129.82 38.98 129.41 38.09 128.84 37.31 C 128.27 36.53 127.57 35.9 126.74 35.42 C 125.91 34.94 124.92 34.7 123.79 34.7 C 122.87 34.7 121.99 34.89 121.16 35.26 C 120.33 35.63 119.6 36.17 118.98 36.88 C 118.36 37.59 117.87 38.47 117.52 39.51 C 117.17 40.56 116.99 41.75 116.99 43.1 C 116.99 45.69 117.6 47.75 118.82 49.29 C 120.05 50.83 121.67 51.61 123.69 51.61 Z " fill="rgb(0,92,171)"/><path d=" M 223.33 24.87 L 219.87 24.87 L 219.87 18.97 L 236.19 18.97 C 237.89 18.97 239.46 19.18 240.89 19.61 C 242.32 20.04 243.56 20.66 244.58 21.5 C 245.61 22.33 246.41 23.35 247 24.56 C 247.58 25.77 247.88 27.15 247.88 28.71 C 247.88 29.77 247.75 30.73 247.48 31.58 C 247.21 32.43 246.87 33.19 246.44 33.87 C 246.01 34.54 245.53 35.13 244.98 35.62 C 244.43 36.12 243.87 36.51 243.31 36.79 L 243.31 36.9 C 244.34 37.22 245.23 37.68 245.99 38.28 C 246.75 38.88 247.38 39.58 247.88 40.38 C 248.38 41.18 248.75 42.04 249 42.96 C 249.25 43.88 249.37 44.82 249.37 45.78 C 249.37 47.66 249.03 49.29 248.33 50.67 C 247.64 52.05 246.69 53.19 245.49 54.1 C 244.28 55 242.89 55.67 241.32 56.09 C 239.74 56.51 238.09 56.73 236.35 56.73 L 226.94 56.73 C 225.7 56.73 224.79 56.45 224.2 55.88 C 223.62 55.31 223.32 54.39 223.32 53.12 L 223.32 24.87 L 223.33 24.87 Z  M 236.25 34.38 C 237.74 34.38 238.87 33.91 239.65 32.97 C 240.43 32.03 240.82 30.89 240.82 29.54 C 240.82 28.19 240.43 27.08 239.65 26.19 C 238.87 25.3 237.7 24.86 236.14 24.86 L 230.29 24.86 L 230.29 34.37 L 236.25 34.37 L 236.25 34.38 Z  M 230.29 49.64 C 230.29 50.42 230.68 50.81 231.46 50.81 L 236.88 50.81 C 238.58 50.81 239.89 50.3 240.81 49.27 C 241.73 48.24 242.19 46.93 242.19 45.34 C 242.19 43.75 241.73 42.44 240.81 41.43 C 239.89 40.42 238.58 39.92 236.88 39.92 L 230.29 39.92 L 230.29 49.64 L 230.29 49.64 Z " fill="rgb(0,92,171)"/><path d=" M 253.58 50.81 L 257.35 50.81 L 257.35 24.87 L 253.58 24.87 L 253.58 18.97 L 267.72 18.97 L 267.72 24.87 L 263.95 24.87 L 263.95 50.81 L 267.72 50.81 L 267.72 56.71 L 253.58 56.71 L 253.58 50.81 Z " fill="rgb(0,92,171)"/><path d=" M 179.935 50.94 L 181.29 50.94 C 182.07 50.94 182.46 50.42 182.46 49.64 L 182.46 18.98 L 188.73 18.98 L 203.03 39.87 C 203.42 40.43 203.8 41.02 204.17 41.62 C 204.54 42.22 204.87 42.79 205.15 43.32 C 205.5 43.96 205.84 44.58 206.16 45.18 L 206.27 45.18 C 206.2 44.58 206.13 43.96 206.06 43.32 C 205.99 42.79 205.95 42.22 205.93 41.62 C 205.91 41.02 205.9 40.44 205.9 39.87 L 205.9 22.59 C 205.9 21.35 206.18 20.43 206.75 19.85 C 207.31 19.26 208.23 18.97 209.51 18.97 L 209.51 18.97 L 216.3 18.97 L 216.3 24.87 L 214.02 24.87 C 213.24 24.87 212.85 25.26 212.85 26.04 L 212.85 56.71 L 206.63 56.71 L 192.28 35.87 C 191.89 35.34 191.51 34.76 191.14 34.14 C 190.77 33.52 190.44 32.94 190.16 32.41 C 189.81 31.77 189.47 31.15 189.15 30.55 L 189.04 30.55 C 189.08 31.15 189.13 31.77 189.2 32.41 C 189.27 32.94 189.32 33.52 189.36 34.14 C 189.39 34.76 189.41 35.34 189.41 35.87 L 189.41 53.09 C 189.41 54.36 189.13 55.28 188.56 55.85 C 188 56.42 187.08 56.7 185.8 56.7 L 177.435 56.7 C 178.917 55.212 179.858 53.185 179.935 50.94 Z  M 162.755 50.94 L 155 50.94 C 153.14 50.85 151.5 50.27 150.08 49.14 C 148.54 47.92 147.63 46.1 147.35 43.69 L 166.01 43.69 C 166.01 43.37 166.03 43.05 166.06 42.73 C 166.1 42.45 166.12 42.17 166.14 41.91 C 166.16 41.64 166.17 41.41 166.17 41.19 C 166.17 39.38 165.9 37.7 165.37 36.14 C 164.84 34.58 164.07 33.23 163.06 32.07 C 162.05 30.92 160.8 30.01 159.31 29.33 C 157.82 28.66 156.1 28.32 154.15 28.32 C 152.13 28.32 150.27 28.67 148.57 29.36 C 146.87 30.05 145.42 31.03 144.21 32.28 C 143.01 33.54 142.07 35.04 141.39 36.77 C 140.72 38.51 140.38 40.42 140.38 42.51 C 140.38 44.42 140.72 46.24 141.39 47.96 C 142.06 49.68 143.03 51.19 144.29 52.48 C 145.55 53.77 147.08 54.8 148.89 55.56 C 150.7 56.32 152.72 56.7 154.95 56.7 C 154.97 56.7 154.99 56.7 155 56.7 L 155 56.7 L 165.256 56.7 C 163.773 55.212 162.832 53.185 162.755 50.94 Z  M 149.85 35.03 C 150.99 34.07 152.42 33.58 154.14 33.58 C 155.51 33.58 156.68 34.08 157.64 35.08 C 158.61 36.08 159.12 37.39 159.19 39 L 147.55 39 C 147.94 37.32 148.71 36 149.85 35.03 L 149.85 35.03 Z " fill-rule="evenodd" fill="rgb(0,92,171)"/><path d=" M 165.27 50.63 C 165.27 47.28 167.99 44.56 171.35 44.56 C 174.7 44.56 177.42 47.28 177.42 50.63 C 177.42 53.99 174.7 56.71 171.35 56.71 C 167.99 56.71 165.27 53.99 165.27 50.63 Z " fill="rgb(236,0,140)"/><g><path d=" M 299.58 52.68 L 291.73 52.65 C 290.42 52.59 289.27 52.18 288.27 51.38 C 287.19 50.52 286.55 49.24 286.35 47.55 L 299.47 47.55 C 299.47 47.33 299.48 47.1 299.51 46.88 C 299.53 46.68 299.55 46.49 299.57 46.3 C 299.58 46.11 299.59 45.95 299.59 45.79 C 299.59 44.52 299.4 43.34 299.03 42.24 C 298.66 41.14 298.11 40.19 297.4 39.38 C 296.69 38.57 295.81 37.93 294.76 37.45 C 293.71 36.98 292.5 36.74 291.13 36.74 C 289.71 36.74 288.4 36.98 287.21 37.47 C 286.01 37.96 284.99 38.64 284.14 39.53 C 283.29 40.42 282.63 41.47 282.16 42.69 C 281.69 43.91 281.45 45.26 281.45 46.73 C 281.45 48.08 281.69 49.35 282.16 50.56 C 282.63 51.77 283.31 52.83 284.2 53.74 C 285.08 54.65 286.16 55.37 287.43 55.91 C 288.7 56.45 290.12 56.71 291.69 56.71 C 291.7 56.71 291.71 56.71 291.73 56.71 L 291.73 56.71 L 299.58 56.71 L 299.58 52.68 L 299.58 52.68 Z  M 288.53 41.46 C 289.33 40.78 290.34 40.44 291.55 40.44 C 292.51 40.44 293.33 40.79 294.01 41.5 C 294.69 42.2 295.05 43.12 295.1 44.26 L 286.91 44.26 C 287.19 43.08 287.72 42.14 288.53 41.46 Z " fill="rgb(0,92,171)"/><path d=" M 300.99 53.72 C 300.99 52.07 302.33 50.73 303.98 50.73 C 305.63 50.73 306.97 52.07 306.97 53.72 C 306.97 55.37 305.63 56.71 303.98 56.71 C 302.32 56.71 300.99 55.37 300.99 53.72 Z " fill="rgb(0,92,171)"/></g><g><g><path d=" M 305.81 34.32 L 303.16 34.32 L 303.16 30.17 L 313.1 30.17 L 313.1 34.32 L 310.45 34.32 L 315.45 50.05 L 315.45 56.72 L 313.11 56.72 L 305.81 34.32 Z " fill="rgb(0,92,171)"/><path d=" M 317.61 56.71 L 315.27 56.71 L 315.27 50.04 L 320.27 34.31 L 317.62 34.31 L 317.62 30.16 L 327.56 30.16 L 327.56 34.31 L 324.91 34.31 L 317.61 56.71 Z " fill="rgb(0,92,171)"/></g><path d=" M 321.57 53.72 C 321.57 52.07 322.91 50.73 324.56 50.73 C 326.21 50.73 327.55 52.07 327.55 53.72 C 327.55 55.37 326.21 56.71 324.56 56.71 C 322.91 56.71 321.57 55.37 321.57 53.72 Z " fill="rgb(0,92,171)"/></g></g></g></g></svg>