<?xml version="1.0" encoding="UTF-8" standalone="no"?>
<!-- Generator: Gravit.io -->

<svg
   style="isolation:isolate"
   viewBox="0 0 90 90"
   width="90pt"
   height="90pt"
   version="1.1"
   id="svg1718445"
   sodipodi:docname="deNBIeV_FooterLogo.svg"
   inkscape:version="1.2.1 (9c6d41e410, 2022-07-14)"
   xmlns:inkscape="http://www.inkscape.org/namespaces/inkscape"
   xmlns:sodipodi="http://sodipodi.sourceforge.net/DTD/sodipodi-0.dtd"
   xmlns="http://www.w3.org/2000/svg"
   xmlns:svg="http://www.w3.org/2000/svg">
  <sodipodi:namedview
     id="namedview1718447"
     pagecolor="#ffffff"
     bordercolor="#000000"
     borderopacity="0.25"
     inkscape:showpageshadow="2"
     inkscape:pageopacity="0.0"
     inkscape:pagecheckerboard="0"
     inkscape:deskcolor="#d1d1d1"
     inkscape:document-units="pt"
     showgrid="false"
     inkscape:zoom="3.4583333"
     inkscape:cx="31.951807"
     inkscape:cy="43.228916"
     inkscape:window-width="1920"
     inkscape:window-height="991"
     inkscape:window-x="-9"
     inkscape:window-y="-9"
     inkscape:window-maximized="1"
     inkscape:current-layer="svg1718445" />
  <defs
     id="defs1718379">
    <clipPath
       id="_clipPath_tJN1X6sJSEgmAYx7u3NmWyxwStKUeItr">
      <rect
         width="90"
         height="90"
         id="rect1718376" />
    </clipPath>
  </defs>
  <g
     clip-path="url(#_clipPath_tJN1X6sJSEgmAYx7u3NmWyxwStKUeItr)"
     id="g1718443"
     transform="rotate(-90,45,45)">
    <g
       id="g1718441">
      <g
         id="g1718383">
        <rect
           x="32.345001"
           y="43.779999"
           width="24.76"
           height="2.4300001"
           transform="rotate(90,44.725,44.995)"
           fill="#019f4b"
           id="rect1718381" />
      </g>
      <g
         id="g1718387">
        <rect
           x="8.0450001"
           y="43.779999"
           width="24.76"
           height="2.4300001"
           transform="rotate(90,20.425,44.995)"
           fill="#019f4b"
           id="rect1718385" />
      </g>
      <g
         id="g1718391">
        <rect
           x="57.195"
           y="43.779999"
           width="24.76"
           height="2.4300001"
           transform="rotate(90,69.575,44.995)"
           fill="#019f4b"
           id="rect1718389" />
      </g>
      <path
         d="m 69.03,75.375 c 3.36,0 6.07,2.72 6.07,6.08 0,3.35 -2.72,6.07 -6.07,6.07 -3.35,0 -6.08,-2.72 -6.08,-6.07 0,-3.36 2.72,-6.08 6.08,-6.08 z"
         fill="#005cab"
         id="path1718393" />
      <path
         d="m 44.73,75.375 c 3.35,0 6.07,2.72 6.07,6.08 0,3.35 -2.72,6.07 -6.07,6.07 -3.36,0 -6.08,-2.72 -6.08,-6.07 0,-3.36 2.72,-6.08 6.08,-6.08 z"
         fill="#005cab"
         id="path1718395" />
      <path
         d="m 20.43,75.375 c 3.36,0 6.08,2.72 6.08,6.08 0,3.35 -2.72,6.07 -6.08,6.07 -3.35,0 -6.08,-2.72 -6.08,-6.07 0,-3.36 2.72,-6.08 6.08,-6.08 z"
         fill="#005cab"
         id="path1718397" />
      <path
         d="m 81.73,63.225 c 3.35,0 6.07,2.72 6.07,6.07 0,3.36 -2.72,6.08 -6.07,6.08 -3.35,0 -6.07,-2.72 -6.07,-6.08 -0.01,-3.35 2.71,-6.07 6.07,-6.07 z"
         fill="#005cab"
         id="path1718399" />
      <path
         d="m 57.43,63.225 c 3.36,0 6.07,2.72 6.07,6.07 0,3.36 -2.72,6.08 -6.07,6.08 -3.36,0 -6.08,-2.72 -6.08,-6.08 0,-3.35 2.72,-6.07 6.08,-6.07 z"
         fill="#005cab"
         id="path1718401" />
      <path
         d="m 32.58,63.225 c 3.36,0 6.08,2.72 6.08,6.07 0,3.36 -2.72,6.08 -6.08,6.08 -3.36,0 -6.07,-2.72 -6.07,-6.08 -0.01,-3.35 2.71,-6.07 6.07,-6.07 z"
         fill="#005cab"
         id="path1718403" />
      <path
         d="m 8.28,63.225 c 3.36,0 6.08,2.72 6.08,6.07 0,3.36 -2.72,6.08 -6.08,6.08 -3.36,0 -6.08,-2.72 -6.08,-6.08 0,-3.35 2.72,-6.07 6.08,-6.07 z"
         fill="#005cab"
         id="path1718405" />
      <path
         d="m 69.58,51.075 c 3.36,0 6.08,2.72 6.08,6.08 0,3.36 -2.72,6.07 -6.08,6.07 -3.35,0 -6.08,-2.72 -6.08,-6.07 0,-3.36 2.72,-6.08 6.08,-6.08 z"
         fill="#019f4b"
         id="path1718407" />
      <path
         d="m 44.73,51.075 c 3.35,0 6.07,2.72 6.07,6.08 0,3.36 -2.72,6.07 -6.07,6.07 -3.36,0 -6.08,-2.72 -6.08,-6.07 0,-3.36 2.72,-6.08 6.08,-6.08 z"
         fill="#ec008c"
         id="path1718409" />
      <path
         d="m 20.43,51.075 c 3.36,0 6.08,2.72 6.08,6.08 0,3.36 -2.72,6.07 -6.08,6.07 -3.35,0 -6.08,-2.72 -6.08,-6.07 0,-3.36 2.72,-6.08 6.08,-6.08 z"
         fill="#019f4b"
         id="path1718411" />
      <path
         d="m 81.73,38.925 c 3.35,0 6.07,2.72 6.07,6.07 0,3.36 -2.72,6.08 -6.07,6.08 -3.35,0 -6.07,-2.72 -6.07,-6.08 -0.01,-3.35 2.71,-6.07 6.07,-6.07 z"
         fill="#019f4b"
         id="path1718413" />
      <path
         d="m 57.43,38.925 c 3.36,0 6.07,2.72 6.07,6.07 0,3.36 -2.72,6.08 -6.07,6.08 -3.36,0 -6.08,-2.72 -6.08,-6.08 0,-3.35 2.72,-6.07 6.08,-6.07 z"
         fill="#019f4b"
         id="path1718415" />
      <path
         d="m 32.58,38.925 c 3.36,0 6.08,2.72 6.08,6.07 0,3.36 -2.72,6.08 -6.08,6.08 -3.36,0 -6.07,-2.72 -6.07,-6.08 -0.01,-3.35 2.71,-6.07 6.07,-6.07 z"
         fill="#019f4b"
         id="path1718417" />
      <path
         d="m 8.28,38.925 c 3.36,0 6.08,2.72 6.08,6.07 0,3.36 -2.72,6.08 -6.08,6.08 -3.36,0 -6.08,-2.72 -6.08,-6.08 0,-3.35 2.72,-6.07 6.08,-6.07 z"
         fill="#019f4b"
         id="path1718419" />
      <path
         d="m 69.58,26.775 c 3.36,0 6.08,2.72 6.08,6.08 0,3.36 -2.72,6.08 -6.08,6.08 -3.35,0 -6.08,-2.72 -6.08,-6.08 0,-3.36 2.72,-6.08 6.08,-6.08 z"
         fill="#ec008c"
         id="path1718421" />
      <path
         d="m 44.73,26.775 c 3.35,0 6.07,2.72 6.07,6.08 0,3.36 -2.72,6.08 -6.07,6.08 -3.36,0 -6.08,-2.72 -6.08,-6.08 0,-3.36 2.72,-6.08 6.08,-6.08 z"
         fill="#019f4b"
         id="path1718423" />
      <path
         d="m 20.43,26.775 c 3.36,0 6.08,2.72 6.08,6.08 0,3.36 -2.72,6.08 -6.08,6.08 -3.35,0 -6.08,-2.72 -6.08,-6.08 0,-3.36 2.72,-6.08 6.08,-6.08 z"
         fill="#ec008c"
         id="path1718425" />
      <path
         d="m 81.73,14.625 c 3.35,0 6.07,2.72 6.07,6.08 0,3.35 -2.72,6.07 -6.07,6.07 -3.35,0 -6.07,-2.72 -6.07,-6.07 -0.01,-3.36 2.71,-6.08 6.07,-6.08 z"
         fill="#005cab"
         id="path1718427" />
      <path
         d="m 57.43,14.625 c 3.36,0 6.07,2.72 6.07,6.08 0,3.35 -2.72,6.07 -6.07,6.07 -3.36,0 -6.08,-2.72 -6.08,-6.07 0,-3.36 2.72,-6.08 6.08,-6.08 z"
         fill="#005cab"
         id="path1718429" />
      <path
         d="m 32.58,14.625 c 3.36,0 6.08,2.72 6.08,6.08 0,3.35 -2.72,6.07 -6.08,6.07 -3.36,0 -6.07,-2.72 -6.07,-6.07 -0.01,-3.36 2.71,-6.08 6.07,-6.08 z"
         fill="#005cab"
         id="path1718431" />
      <path
         d="m 8.28,14.625 c 3.36,0 6.08,2.72 6.08,6.08 0,3.35 -2.72,6.07 -6.08,6.07 -3.36,0 -6.08,-2.72 -6.08,-6.07 0,-3.36 2.72,-6.08 6.08,-6.08 z"
         fill="#005cab"
         id="path1718433" />
      <path
         d="m 69.03,2.475 c 3.36,0 6.07,2.72 6.07,6.07 0,3.36 -2.72,6.08 -6.07,6.08 -3.35,0 -6.08,-2.72 -6.08,-6.08 0,-3.35 2.72,-6.07 6.08,-6.07 z"
         fill="#005cab"
         id="path1718435" />
      <path
         d="m 44.73,2.475 c 3.35,0 6.07,2.72 6.07,6.07 0,3.36 -2.72,6.08 -6.07,6.08 -3.36,0 -6.08,-2.72 -6.08,-6.08 0,-3.35 2.72,-6.07 6.08,-6.07 z"
         fill="#005cab"
         id="path1718437" />
      <path
         d="m 20.43,2.475 c 3.36,0 6.08,2.72 6.08,6.07 0,3.36 -2.72,6.08 -6.08,6.08 -3.35,0 -6.08,-2.72 -6.08,-6.08 0,-3.35 2.72,-6.07 6.08,-6.07 z"
         fill="#005cab"
         id="path1718439" />
    </g>
  </g>
</svg>
